<?xml version="1.0"?>
<!-- Created by MetaPost 2.00 on 2021.02.28:1109 -->
<svg version="1.1" xmlns="http://www.w3.org/2000/svg" xmlns:xlink="http://www.w3.org/1999/xlink" viewBox="0 0 222.372803 454.796448">
<!-- Original BoundingBox: -42.795258 -191.532715 179.577545 263.263733 -->
  <defs>
    <g transform="scale(0.009963,0.009963)" id="GLYPHcmr10_12">
      <path style="fill-rule: evenodd;" d="M330.000000 -400.000000C376.000000 -400.000000,383.000000 -387.000000,383.000000 -346.000000L383.000000 -76.000000C383.000000 -31.000000,372.000000 -31.000000,305.000000 -31.000000L305.000000 -0.000000C338.000000 -1.000000,391.000000 -3.000000,416.000000 -3.000000C441.000000 -3.000000,490.000000 -1.000000,527.000000 -0.000000L527.000000 -31.000000C460.000000 -31.000000,449.000000 -31.000000,449.000000 -76.000000L449.000000 -443.000000L323.000000 -434.000000C307.000000 -433.000000,306.000000 -432.000000,305.000000 -432.000000C303.000000 -431.000000,301.000000 -431.000000,287.000000 -431.000000L169.000000 -431.000000L169.000000 -544.000000C169.000000 -643.000000,255.000000 -683.000000,317.000000 -683.000000C347.000000 -683.000000,383.000000 -673.000000,403.000000 -650.000000C362.000000 -648.000000,356.000000 -620.000000,356.000000 -604.000000C356.000000 -571.000000,382.000000 -558.000000,401.000000 -558.000000C424.000000 -558.000000,447.000000 -574.000000,447.000000 -604.000000C447.000000 -663.000000,392.000000 -705.000000,318.000000 -705.000000C225.000000 -705.000000,106.000000 -654.000000,106.000000 -545.000000L106.000000 -431.000000L27.000000 -431.000000L27.000000 -400.000000L106.000000 -400.000000L106.000000 -76.000000C106.000000 -31.000000,95.000000 -31.000000,28.000000 -31.000000L28.000000 -0.000000C61.000000 -1.000000,114.000000 -3.000000,139.000000 -3.000000C164.000000 -3.000000,213.000000 -1.000000,250.000000 -0.000000L250.000000 -31.000000C183.000000 -31.000000,172.000000 -31.000000,172.000000 -76.000000L172.000000 -400.000000"></path>
    </g>
    <g transform="scale(0.009963,0.009963)" id="GLYPHcmr10_14">
      <path style="fill-rule: evenodd;" d="M607.000000 -400.000000C653.000000 -400.000000,660.000000 -387.000000,660.000000 -346.000000L660.000000 -76.000000C660.000000 -31.000000,649.000000 -31.000000,582.000000 -31.000000L582.000000 -0.000000C615.000000 -1.000000,668.000000 -3.000000,693.000000 -3.000000C718.000000 -3.000000,767.000000 -1.000000,804.000000 -0.000000L804.000000 -31.000000C737.000000 -31.000000,726.000000 -31.000000,726.000000 -76.000000L726.000000 -443.000000L687.000000 -440.000000C638.000000 -436.000000,630.000000 -436.000000,582.000000 -432.000000C580.000000 -431.000000,578.000000 -431.000000,564.000000 -431.000000L446.000000 -431.000000L446.000000 -544.000000C446.000000 -643.000000,532.000000 -683.000000,594.000000 -683.000000C624.000000 -683.000000,660.000000 -673.000000,680.000000 -650.000000C639.000000 -648.000000,633.000000 -620.000000,633.000000 -604.000000C633.000000 -571.000000,659.000000 -558.000000,678.000000 -558.000000C701.000000 -558.000000,724.000000 -574.000000,724.000000 -604.000000C724.000000 -663.000000,669.000000 -705.000000,595.000000 -705.000000C507.000000 -705.000000,450.000000 -665.000000,432.000000 -650.000000C409.000000 -685.000000,367.000000 -705.000000,317.000000 -705.000000C223.000000 -705.000000,106.000000 -654.000000,106.000000 -545.000000L106.000000 -431.000000L27.000000 -431.000000L27.000000 -400.000000L106.000000 -400.000000L106.000000 -76.000000C106.000000 -31.000000,95.000000 -31.000000,28.000000 -31.000000L28.000000 -0.000000C61.000000 -1.000000,114.000000 -3.000000,139.000000 -3.000000C164.000000 -3.000000,213.000000 -1.000000,250.000000 -0.000000L250.000000 -31.000000C183.000000 -31.000000,172.000000 -31.000000,172.000000 -76.000000L172.000000 -400.000000L383.000000 -400.000000L383.000000 -76.000000C383.000000 -31.000000,372.000000 -31.000000,305.000000 -31.000000L305.000000 -0.000000C338.000000 -1.000000,391.000000 -3.000000,416.000000 -3.000000C441.000000 -3.000000,490.000000 -1.000000,527.000000 -0.000000L527.000000 -31.000000C460.000000 -31.000000,449.000000 -31.000000,449.000000 -76.000000L449.000000 -400.000000M383.000000 -431.000000L169.000000 -431.000000L169.000000 -544.000000C169.000000 -644.000000,256.000000 -683.000000,315.000000 -683.000000C339.000000 -683.000000,374.000000 -678.000000,401.000000 -650.000000C362.000000 -648.000000,353.000000 -624.000000,353.000000 -604.000000C353.000000 -582.000000,365.000000 -566.000000,383.000000 -561.000000"></path>
    </g>
    <g transform="scale(0.009963,0.009963)" id="GLYPHcmr10_32">
      <path style="fill-rule: evenodd;" d="M262.000000 -363.000000L251.000000 -392.000000L27.000000 -310.000000L37.000000 -280.000000"></path>
    </g>
    <g transform="scale(0.009963,0.009963)" id="GLYPHcmr10_45">
      <path style="fill-rule: evenodd;" d="M276.000000 -187.000000L276.000000 -245.000000L11.000000 -245.000000L11.000000 -187.000000"></path>
    </g>
    <g transform="scale(0.009963,0.009963)" id="GLYPHcmr10_48">
      <path style="fill-rule: evenodd;" d="M460.000000 -320.000000C460.000000 -400.000000,455.000000 -480.000000,420.000000 -554.000000C374.000000 -650.000000,292.000000 -666.000000,250.000000 -666.000000C190.000000 -666.000000,117.000000 -640.000000,76.000000 -547.000000C44.000000 -478.000000,39.000000 -400.000000,39.000000 -320.000000C39.000000 -245.000000,43.000000 -155.000000,84.000000 -79.000000C127.000000 2.000000,200.000000 22.000000,249.000000 22.000000C303.000000 22.000000,379.000000 1.000000,423.000000 -94.000000C455.000000 -163.000000,460.000000 -241.000000,460.000000 -320.000000M249.000000 -0.000000C210.000000 -0.000000,151.000000 -25.000000,133.000000 -121.000000C122.000000 -181.000000,122.000000 -273.000000,122.000000 -332.000000C122.000000 -396.000000,122.000000 -462.000000,130.000000 -516.000000C149.000000 -635.000000,224.000000 -644.000000,249.000000 -644.000000C282.000000 -644.000000,348.000000 -626.000000,367.000000 -527.000000C377.000000 -471.000000,377.000000 -395.000000,377.000000 -332.000000C377.000000 -257.000000,377.000000 -189.000000,366.000000 -125.000000C351.000000 -30.000000,294.000000 -0.000000,249.000000 -0.000000"></path>
    </g>
    <g transform="scale(0.009963,0.009963)" id="GLYPHcmr10_49">
      <path style="fill-rule: evenodd;" d="M294.000000 -640.000000C294.000000 -664.000000,294.000000 -666.000000,271.000000 -666.000000C209.000000 -602.000000,121.000000 -602.000000,89.000000 -602.000000L89.000000 -571.000000C109.000000 -571.000000,168.000000 -571.000000,220.000000 -597.000000L220.000000 -79.000000C220.000000 -43.000000,217.000000 -31.000000,127.000000 -31.000000L95.000000 -31.000000L95.000000 -0.000000C130.000000 -3.000000,217.000000 -3.000000,257.000000 -3.000000C297.000000 -3.000000,384.000000 -3.000000,419.000000 -0.000000L419.000000 -31.000000L387.000000 -31.000000C297.000000 -31.000000,294.000000 -42.000000,294.000000 -79.000000"></path>
    </g>
    <g transform="scale(0.009963,0.009963)" id="GLYPHcmr10_50">
      <path style="fill-rule: evenodd;" d="M127.000000 -77.000000L233.000000 -180.000000C389.000000 -318.000000,449.000000 -372.000000,449.000000 -472.000000C449.000000 -586.000000,359.000000 -666.000000,237.000000 -666.000000C124.000000 -666.000000,50.000000 -574.000000,50.000000 -485.000000C50.000000 -429.000000,100.000000 -429.000000,103.000000 -429.000000C120.000000 -429.000000,155.000000 -441.000000,155.000000 -482.000000C155.000000 -508.000000,137.000000 -534.000000,102.000000 -534.000000C94.000000 -534.000000,92.000000 -534.000000,89.000000 -533.000000C112.000000 -598.000000,166.000000 -635.000000,224.000000 -635.000000C315.000000 -635.000000,358.000000 -554.000000,358.000000 -472.000000C358.000000 -392.000000,308.000000 -313.000000,253.000000 -251.000000L61.000000 -37.000000C50.000000 -26.000000,50.000000 -24.000000,50.000000 -0.000000L421.000000 -0.000000L449.000000 -174.000000L424.000000 -174.000000C419.000000 -144.000000,412.000000 -100.000000,402.000000 -85.000000C395.000000 -77.000000,329.000000 -77.000000,307.000000 -77.000000"></path>
    </g>
    <g transform="scale(0.009963,0.009963)" id="GLYPHcmr10_51">
      <path style="fill-rule: evenodd;" d="M290.000000 -352.000000C372.000000 -379.000000,430.000000 -449.000000,430.000000 -528.000000C430.000000 -610.000000,342.000000 -666.000000,246.000000 -666.000000C145.000000 -666.000000,69.000000 -606.000000,69.000000 -530.000000C69.000000 -497.000000,91.000000 -478.000000,120.000000 -478.000000C151.000000 -478.000000,171.000000 -500.000000,171.000000 -529.000000C171.000000 -579.000000,124.000000 -579.000000,109.000000 -579.000000C140.000000 -628.000000,206.000000 -641.000000,242.000000 -641.000000C283.000000 -641.000000,338.000000 -619.000000,338.000000 -529.000000C338.000000 -517.000000,336.000000 -459.000000,310.000000 -415.000000C280.000000 -367.000000,246.000000 -364.000000,221.000000 -363.000000C213.000000 -362.000000,189.000000 -360.000000,182.000000 -360.000000C174.000000 -359.000000,167.000000 -358.000000,167.000000 -348.000000C167.000000 -337.000000,174.000000 -337.000000,191.000000 -337.000000L235.000000 -337.000000C317.000000 -337.000000,354.000000 -269.000000,354.000000 -171.000000C354.000000 -35.000000,285.000000 -6.000000,241.000000 -6.000000C198.000000 -6.000000,123.000000 -23.000000,88.000000 -82.000000C123.000000 -77.000000,154.000000 -99.000000,154.000000 -137.000000C154.000000 -173.000000,127.000000 -193.000000,98.000000 -193.000000C74.000000 -193.000000,42.000000 -179.000000,42.000000 -135.000000C42.000000 -44.000000,135.000000 22.000000,244.000000 22.000000C366.000000 22.000000,457.000000 -69.000000,457.000000 -171.000000C457.000000 -253.000000,394.000000 -331.000000,290.000000 -352.000000"></path>
    </g>
    <g transform="scale(0.009963,0.009963)" id="GLYPHcmr10_52">
      <path style="fill-rule: evenodd;" d="M294.000000 -165.000000L294.000000 -78.000000C294.000000 -42.000000,292.000000 -31.000000,218.000000 -31.000000L197.000000 -31.000000L197.000000 -0.000000C238.000000 -3.000000,290.000000 -3.000000,332.000000 -3.000000C374.000000 -3.000000,427.000000 -3.000000,468.000000 -0.000000L468.000000 -31.000000L447.000000 -31.000000C373.000000 -31.000000,371.000000 -42.000000,371.000000 -78.000000L371.000000 -165.000000L471.000000 -165.000000L471.000000 -196.000000L371.000000 -196.000000L371.000000 -651.000000C371.000000 -671.000000,371.000000 -677.000000,355.000000 -677.000000C346.000000 -677.000000,343.000000 -677.000000,335.000000 -665.000000L28.000000 -196.000000L28.000000 -165.000000M300.000000 -196.000000L56.000000 -196.000000L300.000000 -569.000000"></path>
    </g>
    <g transform="scale(0.009963,0.009963)" id="GLYPHcmr10_53">
      <path style="fill-rule: evenodd;" d="M449.000000 -201.000000C449.000000 -320.000000,367.000000 -420.000000,259.000000 -420.000000C211.000000 -420.000000,168.000000 -404.000000,132.000000 -369.000000L132.000000 -564.000000C152.000000 -558.000000,185.000000 -551.000000,217.000000 -551.000000C340.000000 -551.000000,410.000000 -642.000000,410.000000 -655.000000C410.000000 -661.000000,407.000000 -666.000000,400.000000 -666.000000C399.000000 -666.000000,397.000000 -666.000000,392.000000 -663.000000C372.000000 -654.000000,323.000000 -634.000000,256.000000 -634.000000C216.000000 -634.000000,170.000000 -641.000000,123.000000 -662.000000C115.000000 -665.000000,113.000000 -665.000000,111.000000 -665.000000C101.000000 -665.000000,101.000000 -657.000000,101.000000 -641.000000L101.000000 -345.000000C101.000000 -327.000000,101.000000 -319.000000,115.000000 -319.000000C122.000000 -319.000000,124.000000 -322.000000,128.000000 -328.000000C139.000000 -344.000000,176.000000 -398.000000,257.000000 -398.000000C309.000000 -398.000000,334.000000 -352.000000,342.000000 -334.000000C358.000000 -297.000000,360.000000 -258.000000,360.000000 -208.000000C360.000000 -173.000000,360.000000 -113.000000,336.000000 -71.000000C312.000000 -32.000000,275.000000 -6.000000,229.000000 -6.000000C156.000000 -6.000000,99.000000 -59.000000,82.000000 -118.000000C85.000000 -117.000000,88.000000 -116.000000,99.000000 -116.000000C132.000000 -116.000000,149.000000 -141.000000,149.000000 -165.000000C149.000000 -189.000000,132.000000 -214.000000,99.000000 -214.000000C85.000000 -214.000000,50.000000 -207.000000,50.000000 -161.000000C50.000000 -75.000000,119.000000 22.000000,231.000000 22.000000C347.000000 22.000000,449.000000 -74.000000,449.000000 -201.000000"></path>
    </g>
    <g transform="scale(0.009963,0.009963)" id="GLYPHcmr10_54">
      <path style="fill-rule: evenodd;" d="M132.000000 -328.000000L132.000000 -352.000000C132.000000 -605.000000,256.000000 -641.000000,307.000000 -641.000000C331.000000 -641.000000,373.000000 -635.000000,395.000000 -601.000000C380.000000 -601.000000,340.000000 -601.000000,340.000000 -556.000000C340.000000 -525.000000,364.000000 -510.000000,386.000000 -510.000000C402.000000 -510.000000,432.000000 -519.000000,432.000000 -558.000000C432.000000 -618.000000,388.000000 -666.000000,305.000000 -666.000000C177.000000 -666.000000,42.000000 -537.000000,42.000000 -316.000000C42.000000 -49.000000,158.000000 22.000000,251.000000 22.000000C362.000000 22.000000,457.000000 -72.000000,457.000000 -204.000000C457.000000 -331.000000,368.000000 -427.000000,257.000000 -427.000000C189.000000 -427.000000,152.000000 -376.000000,132.000000 -328.000000M251.000000 -6.000000C188.000000 -6.000000,158.000000 -66.000000,152.000000 -81.000000C134.000000 -128.000000,134.000000 -208.000000,134.000000 -226.000000C134.000000 -304.000000,166.000000 -404.000000,256.000000 -404.000000C272.000000 -404.000000,318.000000 -404.000000,349.000000 -342.000000C367.000000 -305.000000,367.000000 -254.000000,367.000000 -205.000000C367.000000 -157.000000,367.000000 -107.000000,350.000000 -71.000000C320.000000 -11.000000,274.000000 -6.000000,251.000000 -6.000000"></path>
    </g>
    <g transform="scale(0.009963,0.009963)" id="GLYPHcmr10_55">
      <path style="fill-rule: evenodd;" d="M476.000000 -609.000000C485.000000 -621.000000,485.000000 -623.000000,485.000000 -644.000000L242.000000 -644.000000C120.000000 -644.000000,118.000000 -657.000000,114.000000 -676.000000L89.000000 -676.000000L56.000000 -470.000000L81.000000 -470.000000C84.000000 -486.000000,93.000000 -549.000000,106.000000 -561.000000C113.000000 -567.000000,191.000000 -567.000000,204.000000 -567.000000L411.000000 -567.000000C400.000000 -551.000000,321.000000 -442.000000,299.000000 -409.000000C209.000000 -274.000000,176.000000 -135.000000,176.000000 -33.000000C176.000000 -23.000000,176.000000 22.000000,222.000000 22.000000C268.000000 22.000000,268.000000 -23.000000,268.000000 -33.000000L268.000000 -84.000000C268.000000 -139.000000,271.000000 -194.000000,279.000000 -248.000000C283.000000 -271.000000,297.000000 -357.000000,341.000000 -419.000000"></path>
    </g>
    <g transform="scale(0.009963,0.009963)" id="GLYPHcmr10_56">
      <path style="fill-rule: evenodd;" d="M163.000000 -457.000000C117.000000 -487.000000,113.000000 -521.000000,113.000000 -538.000000C113.000000 -599.000000,178.000000 -641.000000,249.000000 -641.000000C322.000000 -641.000000,386.000000 -589.000000,386.000000 -517.000000C386.000000 -460.000000,347.000000 -412.000000,287.000000 -377.000000M309.000000 -362.000000C381.000000 -399.000000,430.000000 -451.000000,430.000000 -517.000000C430.000000 -609.000000,341.000000 -666.000000,250.000000 -666.000000C150.000000 -666.000000,69.000000 -592.000000,69.000000 -499.000000C69.000000 -481.000000,71.000000 -436.000000,113.000000 -389.000000C124.000000 -377.000000,161.000000 -352.000000,186.000000 -335.000000C128.000000 -306.000000,42.000000 -250.000000,42.000000 -151.000000C42.000000 -45.000000,144.000000 22.000000,249.000000 22.000000C362.000000 22.000000,457.000000 -61.000000,457.000000 -168.000000C457.000000 -204.000000,446.000000 -249.000000,408.000000 -291.000000C389.000000 -312.000000,373.000000 -322.000000,309.000000 -362.000000M209.000000 -320.000000L332.000000 -242.000000C360.000000 -223.000000,407.000000 -193.000000,407.000000 -132.000000C407.000000 -58.000000,332.000000 -6.000000,250.000000 -6.000000C164.000000 -6.000000,92.000000 -68.000000,92.000000 -151.000000C92.000000 -209.000000,124.000000 -273.000000,209.000000 -320.000000"></path>
    </g>
    <g transform="scale(0.009963,0.009963)" id="GLYPHcmr10_57">
      <path style="fill-rule: evenodd;" d="M367.000000 -318.000000L367.000000 -286.000000C367.000000 -52.000000,263.000000 -6.000000,205.000000 -6.000000C188.000000 -6.000000,134.000000 -8.000000,107.000000 -42.000000C151.000000 -42.000000,159.000000 -71.000000,159.000000 -88.000000C159.000000 -119.000000,135.000000 -134.000000,113.000000 -134.000000C97.000000 -134.000000,67.000000 -125.000000,67.000000 -86.000000C67.000000 -19.000000,121.000000 22.000000,206.000000 22.000000C335.000000 22.000000,457.000000 -114.000000,457.000000 -329.000000C457.000000 -598.000000,342.000000 -666.000000,253.000000 -666.000000C198.000000 -666.000000,149.000000 -648.000000,106.000000 -603.000000C65.000000 -558.000000,42.000000 -516.000000,42.000000 -441.000000C42.000000 -316.000000,130.000000 -218.000000,242.000000 -218.000000C303.000000 -218.000000,344.000000 -260.000000,367.000000 -318.000000M243.000000 -241.000000C227.000000 -241.000000,181.000000 -241.000000,150.000000 -304.000000C132.000000 -341.000000,132.000000 -391.000000,132.000000 -440.000000C132.000000 -494.000000,132.000000 -541.000000,153.000000 -578.000000C180.000000 -628.000000,218.000000 -641.000000,253.000000 -641.000000C299.000000 -641.000000,332.000000 -607.000000,349.000000 -562.000000C361.000000 -530.000000,365.000000 -467.000000,365.000000 -421.000000C365.000000 -338.000000,331.000000 -241.000000,243.000000 -241.000000"></path>
    </g>
    <g transform="scale(0.009963,0.009963)" id="GLYPHcmr10_97">
      <path style="fill-rule: evenodd;" d="M333.000000 -76.000000C337.000000 -36.000000,364.000000 6.000000,411.000000 6.000000C432.000000 6.000000,493.000000 -8.000000,493.000000 -89.000000L493.000000 -145.000000L468.000000 -145.000000L468.000000 -89.000000C468.000000 -31.000000,443.000000 -25.000000,432.000000 -25.000000C399.000000 -25.000000,395.000000 -70.000000,395.000000 -75.000000L395.000000 -275.000000C395.000000 -317.000000,395.000000 -356.000000,359.000000 -393.000000C320.000000 -432.000000,270.000000 -448.000000,222.000000 -448.000000C140.000000 -448.000000,71.000000 -401.000000,71.000000 -335.000000C71.000000 -305.000000,91.000000 -288.000000,117.000000 -288.000000C145.000000 -288.000000,163.000000 -308.000000,163.000000 -334.000000C163.000000 -346.000000,158.000000 -379.000000,112.000000 -380.000000C139.000000 -415.000000,188.000000 -426.000000,220.000000 -426.000000C269.000000 -426.000000,326.000000 -387.000000,326.000000 -298.000000L326.000000 -261.000000C275.000000 -258.000000,205.000000 -255.000000,142.000000 -225.000000C67.000000 -191.000000,42.000000 -139.000000,42.000000 -95.000000C42.000000 -14.000000,139.000000 11.000000,202.000000 11.000000C268.000000 11.000000,314.000000 -29.000000,333.000000 -76.000000M326.000000 -240.000000L326.000000 -140.000000C326.000000 -45.000000,254.000000 -11.000000,209.000000 -11.000000C160.000000 -11.000000,119.000000 -46.000000,119.000000 -96.000000C119.000000 -151.000000,161.000000 -234.000000,326.000000 -240.000000"></path>
    </g>
    <g transform="scale(0.009963,0.009963)" id="GLYPHcmr10_98">
      <path style="fill-rule: evenodd;" d="M172.000000 -377.000000L172.000000 -694.000000L28.000000 -683.000000L28.000000 -652.000000C98.000000 -652.000000,106.000000 -645.000000,106.000000 -596.000000L106.000000 -0.000000L131.000000 -0.000000C132.000000 -1.000000,140.000000 -15.000000,167.000000 -62.000000C182.000000 -39.000000,224.000000 11.000000,298.000000 11.000000C417.000000 11.000000,521.000000 -87.000000,521.000000 -216.000000C521.000000 -343.000000,423.000000 -442.000000,309.000000 -442.000000C231.000000 -442.000000,188.000000 -395.000000,172.000000 -377.000000M175.000000 -114.000000L175.000000 -320.000000C175.000000 -339.000000,175.000000 -340.000000,186.000000 -356.000000C225.000000 -412.000000,280.000000 -420.000000,304.000000 -420.000000C349.000000 -420.000000,385.000000 -394.000000,409.000000 -356.000000C435.000000 -315.000000,438.000000 -258.000000,438.000000 -217.000000C438.000000 -180.000000,436.000000 -120.000000,407.000000 -75.000000C386.000000 -44.000000,348.000000 -11.000000,294.000000 -11.000000C249.000000 -11.000000,213.000000 -35.000000,189.000000 -72.000000C175.000000 -93.000000,175.000000 -96.000000,175.000000 -114.000000"></path>
    </g>
    <g transform="scale(0.009963,0.009963)" id="GLYPHcmr10_99">
      <path style="fill-rule: evenodd;" d="M117.000000 -218.000000C117.000000 -381.000000,199.000000 -423.000000,252.000000 -423.000000C261.000000 -423.000000,324.000000 -422.000000,359.000000 -386.000000C318.000000 -383.000000,312.000000 -353.000000,312.000000 -340.000000C312.000000 -314.000000,330.000000 -294.000000,358.000000 -294.000000C384.000000 -294.000000,404.000000 -311.000000,404.000000 -341.000000C404.000000 -409.000000,328.000000 -448.000000,251.000000 -448.000000C126.000000 -448.000000,34.000000 -340.000000,34.000000 -216.000000C34.000000 -88.000000,133.000000 11.000000,249.000000 11.000000C383.000000 11.000000,415.000000 -109.000000,415.000000 -119.000000C415.000000 -129.000000,405.000000 -129.000000,402.000000 -129.000000C393.000000 -129.000000,391.000000 -125.000000,389.000000 -119.000000C360.000000 -26.000000,295.000000 -14.000000,258.000000 -14.000000C205.000000 -14.000000,117.000000 -57.000000,117.000000 -218.000000"></path>
    </g>
    <g transform="scale(0.009963,0.009963)" id="GLYPHcmr10_100">
      <path style="fill-rule: evenodd;" d="M380.000000 -55.000000L380.000000 11.000000L527.000000 -0.000000L527.000000 -31.000000C457.000000 -31.000000,449.000000 -38.000000,449.000000 -87.000000L449.000000 -694.000000L305.000000 -683.000000L305.000000 -652.000000C375.000000 -652.000000,383.000000 -645.000000,383.000000 -596.000000L383.000000 -380.000000C354.000000 -416.000000,311.000000 -442.000000,257.000000 -442.000000C139.000000 -442.000000,34.000000 -344.000000,34.000000 -215.000000C34.000000 -88.000000,132.000000 11.000000,246.000000 11.000000C310.000000 11.000000,355.000000 -23.000000,380.000000 -55.000000M380.000000 -323.000000L380.000000 -118.000000C380.000000 -100.000000,380.000000 -98.000000,369.000000 -81.000000C339.000000 -33.000000,294.000000 -11.000000,251.000000 -11.000000C206.000000 -11.000000,170.000000 -37.000000,146.000000 -75.000000C120.000000 -116.000000,117.000000 -173.000000,117.000000 -214.000000C117.000000 -251.000000,119.000000 -311.000000,148.000000 -356.000000C169.000000 -387.000000,207.000000 -420.000000,261.000000 -420.000000C296.000000 -420.000000,338.000000 -405.000000,369.000000 -360.000000C380.000000 -343.000000,380.000000 -341.000000,380.000000 -323.000000"></path>
    </g>
    <g transform="scale(0.009963,0.009963)" id="GLYPHcmr10_101">
      <path style="fill-rule: evenodd;" d="M112.000000 -252.000000C118.000000 -401.000000,202.000000 -426.000000,236.000000 -426.000000C339.000000 -426.000000,349.000000 -291.000000,349.000000 -252.000000M111.000000 -231.000000L390.000000 -231.000000C412.000000 -231.000000,415.000000 -231.000000,415.000000 -252.000000C415.000000 -351.000000,361.000000 -448.000000,236.000000 -448.000000C120.000000 -448.000000,28.000000 -345.000000,28.000000 -220.000000C28.000000 -86.000000,133.000000 11.000000,248.000000 11.000000C370.000000 11.000000,415.000000 -100.000000,415.000000 -119.000000C415.000000 -129.000000,407.000000 -131.000000,402.000000 -131.000000C393.000000 -131.000000,391.000000 -125.000000,389.000000 -117.000000C354.000000 -14.000000,264.000000 -14.000000,254.000000 -14.000000C204.000000 -14.000000,164.000000 -44.000000,141.000000 -81.000000C111.000000 -129.000000,111.000000 -195.000000,111.000000 -231.000000"></path>
    </g>
    <g transform="scale(0.009963,0.009963)" id="GLYPHcmr10_102">
      <path style="fill-rule: evenodd;" d="M175.000000 -431.000000L175.000000 -547.000000C175.000000 -635.000000,223.000000 -683.000000,267.000000 -683.000000C270.000000 -683.000000,285.000000 -683.000000,300.000000 -676.000000C288.000000 -672.000000,270.000000 -659.000000,270.000000 -634.000000C270.000000 -611.000000,286.000000 -591.000000,313.000000 -591.000000C342.000000 -591.000000,357.000000 -611.000000,357.000000 -635.000000C357.000000 -672.000000,320.000000 -705.000000,267.000000 -705.000000C197.000000 -705.000000,112.000000 -652.000000,112.000000 -546.000000L112.000000 -431.000000L33.000000 -431.000000L33.000000 -400.000000L112.000000 -400.000000L112.000000 -76.000000C112.000000 -31.000000,101.000000 -31.000000,34.000000 -31.000000L34.000000 -0.000000C73.000000 -1.000000,120.000000 -3.000000,148.000000 -3.000000C188.000000 -3.000000,235.000000 -3.000000,275.000000 -0.000000L275.000000 -31.000000L254.000000 -31.000000C180.000000 -31.000000,178.000000 -42.000000,178.000000 -78.000000L178.000000 -400.000000L292.000000 -400.000000L292.000000 -431.000000"></path>
    </g>
    <g transform="scale(0.009963,0.009963)" id="GLYPHcmr10_104">
      <path style="fill-rule: evenodd;" d="M110.000000 -76.000000C110.000000 -31.000000,99.000000 -31.000000,32.000000 -31.000000L32.000000 -0.000000C67.000000 -1.000000,118.000000 -3.000000,145.000000 -3.000000C171.000000 -3.000000,223.000000 -1.000000,257.000000 -0.000000L257.000000 -31.000000C190.000000 -31.000000,179.000000 -31.000000,179.000000 -76.000000L179.000000 -260.000000C179.000000 -364.000000,250.000000 -420.000000,314.000000 -420.000000C377.000000 -420.000000,388.000000 -366.000000,388.000000 -309.000000L388.000000 -76.000000C388.000000 -31.000000,377.000000 -31.000000,310.000000 -31.000000L310.000000 -0.000000C345.000000 -1.000000,396.000000 -3.000000,423.000000 -3.000000C449.000000 -3.000000,501.000000 -1.000000,535.000000 -0.000000L535.000000 -31.000000C483.000000 -31.000000,458.000000 -31.000000,457.000000 -61.000000L457.000000 -252.000000C457.000000 -338.000000,457.000000 -369.000000,426.000000 -405.000000C412.000000 -422.000000,379.000000 -442.000000,321.000000 -442.000000C237.000000 -442.000000,193.000000 -382.000000,176.000000 -344.000000L176.000000 -694.000000L32.000000 -683.000000L32.000000 -652.000000C102.000000 -652.000000,110.000000 -645.000000,110.000000 -596.000000"></path>
    </g>
    <g transform="scale(0.009963,0.009963)" id="GLYPHcmr10_105">
      <path style="fill-rule: evenodd;" d="M177.000000 -442.000000L37.000000 -431.000000L37.000000 -400.000000C102.000000 -400.000000,111.000000 -394.000000,111.000000 -345.000000L111.000000 -76.000000C111.000000 -31.000000,100.000000 -31.000000,33.000000 -31.000000L33.000000 -0.000000C65.000000 -1.000000,119.000000 -3.000000,143.000000 -3.000000C178.000000 -3.000000,213.000000 -1.000000,247.000000 -0.000000L247.000000 -31.000000C181.000000 -31.000000,177.000000 -36.000000,177.000000 -75.000000M181.000000 -616.000000C181.000000 -648.000000,156.000000 -669.000000,128.000000 -669.000000C97.000000 -669.000000,75.000000 -642.000000,75.000000 -616.000000C75.000000 -589.000000,97.000000 -563.000000,128.000000 -563.000000C156.000000 -563.000000,181.000000 -584.000000,181.000000 -616.000000"></path>
    </g>
    <g transform="scale(0.009963,0.009963)" id="GLYPHcmr10_108">
      <path style="fill-rule: evenodd;" d="M177.000000 -694.000000L33.000000 -683.000000L33.000000 -652.000000C103.000000 -652.000000,111.000000 -645.000000,111.000000 -596.000000L111.000000 -76.000000C111.000000 -31.000000,100.000000 -31.000000,33.000000 -31.000000L33.000000 -0.000000C66.000000 -1.000000,119.000000 -3.000000,144.000000 -3.000000C169.000000 -3.000000,218.000000 -1.000000,255.000000 -0.000000L255.000000 -31.000000C188.000000 -31.000000,177.000000 -31.000000,177.000000 -76.000000"></path>
    </g>
    <g transform="scale(0.009963,0.009963)" id="GLYPHcmr10_109">
      <path style="fill-rule: evenodd;" d="M110.000000 -344.000000L110.000000 -76.000000C110.000000 -31.000000,99.000000 -31.000000,32.000000 -31.000000L32.000000 -0.000000C67.000000 -1.000000,118.000000 -3.000000,145.000000 -3.000000C171.000000 -3.000000,223.000000 -1.000000,257.000000 -0.000000L257.000000 -31.000000C190.000000 -31.000000,179.000000 -31.000000,179.000000 -76.000000L179.000000 -260.000000C179.000000 -364.000000,250.000000 -420.000000,314.000000 -420.000000C377.000000 -420.000000,388.000000 -366.000000,388.000000 -309.000000L388.000000 -76.000000C388.000000 -31.000000,377.000000 -31.000000,310.000000 -31.000000L310.000000 -0.000000C345.000000 -1.000000,396.000000 -3.000000,423.000000 -3.000000C449.000000 -3.000000,501.000000 -1.000000,535.000000 -0.000000L535.000000 -31.000000C468.000000 -31.000000,457.000000 -31.000000,457.000000 -76.000000L457.000000 -260.000000C457.000000 -364.000000,528.000000 -420.000000,592.000000 -420.000000C655.000000 -420.000000,666.000000 -366.000000,666.000000 -309.000000L666.000000 -76.000000C666.000000 -31.000000,655.000000 -31.000000,588.000000 -31.000000L588.000000 -0.000000C623.000000 -1.000000,674.000000 -3.000000,701.000000 -3.000000C727.000000 -3.000000,779.000000 -1.000000,813.000000 -0.000000L813.000000 -31.000000C761.000000 -31.000000,736.000000 -31.000000,735.000000 -61.000000L735.000000 -252.000000C735.000000 -338.000000,735.000000 -369.000000,704.000000 -405.000000C690.000000 -422.000000,657.000000 -442.000000,599.000000 -442.000000C515.000000 -442.000000,471.000000 -382.000000,454.000000 -344.000000C440.000000 -431.000000,366.000000 -442.000000,321.000000 -442.000000C248.000000 -442.000000,201.000000 -399.000000,173.000000 -337.000000L173.000000 -442.000000L32.000000 -431.000000L32.000000 -400.000000C102.000000 -400.000000,110.000000 -393.000000,110.000000 -344.000000"></path>
    </g>
    <g transform="scale(0.009963,0.009963)" id="GLYPHcmr10_110">
      <path style="fill-rule: evenodd;" d="M110.000000 -344.000000L110.000000 -76.000000C110.000000 -31.000000,99.000000 -31.000000,32.000000 -31.000000L32.000000 -0.000000C67.000000 -1.000000,118.000000 -3.000000,145.000000 -3.000000C171.000000 -3.000000,223.000000 -1.000000,257.000000 -0.000000L257.000000 -31.000000C190.000000 -31.000000,179.000000 -31.000000,179.000000 -76.000000L179.000000 -260.000000C179.000000 -364.000000,250.000000 -420.000000,314.000000 -420.000000C377.000000 -420.000000,388.000000 -366.000000,388.000000 -309.000000L388.000000 -76.000000C388.000000 -31.000000,377.000000 -31.000000,310.000000 -31.000000L310.000000 -0.000000C345.000000 -1.000000,396.000000 -3.000000,423.000000 -3.000000C449.000000 -3.000000,501.000000 -1.000000,535.000000 -0.000000L535.000000 -31.000000C483.000000 -31.000000,458.000000 -31.000000,457.000000 -61.000000L457.000000 -252.000000C457.000000 -338.000000,457.000000 -369.000000,426.000000 -405.000000C412.000000 -422.000000,379.000000 -442.000000,321.000000 -442.000000C248.000000 -442.000000,201.000000 -399.000000,173.000000 -337.000000L173.000000 -442.000000L32.000000 -431.000000L32.000000 -400.000000C102.000000 -400.000000,110.000000 -393.000000,110.000000 -344.000000"></path>
    </g>
    <g transform="scale(0.009963,0.009963)" id="GLYPHcmr10_111">
      <path style="fill-rule: evenodd;" d="M471.000000 -214.000000C471.000000 -342.000000,371.000000 -448.000000,250.000000 -448.000000C125.000000 -448.000000,28.000000 -339.000000,28.000000 -214.000000C28.000000 -85.000000,132.000000 11.000000,249.000000 11.000000C370.000000 11.000000,471.000000 -87.000000,471.000000 -214.000000M250.000000 -14.000000C207.000000 -14.000000,163.000000 -35.000000,136.000000 -81.000000C111.000000 -125.000000,111.000000 -186.000000,111.000000 -222.000000C111.000000 -261.000000,111.000000 -315.000000,135.000000 -359.000000C162.000000 -405.000000,209.000000 -426.000000,249.000000 -426.000000C293.000000 -426.000000,336.000000 -404.000000,362.000000 -361.000000C388.000000 -318.000000,388.000000 -260.000000,388.000000 -222.000000C388.000000 -186.000000,388.000000 -132.000000,366.000000 -88.000000C344.000000 -43.000000,300.000000 -14.000000,250.000000 -14.000000"></path>
    </g>
    <g transform="scale(0.009963,0.009963)" id="GLYPHcmr10_112">
      <path style="fill-rule: evenodd;" d="M172.000000 -376.000000L172.000000 -442.000000L28.000000 -431.000000L28.000000 -400.000000C99.000000 -400.000000,106.000000 -394.000000,106.000000 -350.000000L106.000000 118.000000C106.000000 163.000000,95.000000 163.000000,28.000000 163.000000L28.000000 194.000000C62.000000 193.000000,114.000000 191.000000,140.000000 191.000000C167.000000 191.000000,218.000000 193.000000,253.000000 194.000000L253.000000 163.000000C186.000000 163.000000,175.000000 163.000000,175.000000 118.000000L175.000000 -50.000000L175.000000 -59.000000C180.000000 -43.000000,222.000000 11.000000,298.000000 11.000000C417.000000 11.000000,521.000000 -87.000000,521.000000 -216.000000C521.000000 -343.000000,424.000000 -442.000000,312.000000 -442.000000C234.000000 -442.000000,192.000000 -398.000000,172.000000 -376.000000M175.000000 -114.000000L175.000000 -337.000000C204.000000 -388.000000,253.000000 -417.000000,304.000000 -417.000000C377.000000 -417.000000,438.000000 -329.000000,438.000000 -216.000000C438.000000 -95.000000,368.000000 -11.000000,294.000000 -11.000000C254.000000 -11.000000,216.000000 -31.000000,189.000000 -72.000000C175.000000 -93.000000,175.000000 -94.000000,175.000000 -114.000000"></path>
    </g>
    <g transform="scale(0.009963,0.009963)" id="GLYPHcmr10_114">
      <path style="fill-rule: evenodd;" d="M167.000000 -332.000000L167.000000 -442.000000L28.000000 -431.000000L28.000000 -400.000000C98.000000 -400.000000,106.000000 -393.000000,106.000000 -344.000000L106.000000 -76.000000C106.000000 -31.000000,95.000000 -31.000000,28.000000 -31.000000L28.000000 -0.000000C67.000000 -1.000000,114.000000 -3.000000,142.000000 -3.000000C182.000000 -3.000000,229.000000 -3.000000,269.000000 -0.000000L269.000000 -31.000000L248.000000 -31.000000C174.000000 -31.000000,172.000000 -42.000000,172.000000 -78.000000L172.000000 -232.000000C172.000000 -331.000000,214.000000 -420.000000,290.000000 -420.000000C297.000000 -420.000000,299.000000 -420.000000,301.000000 -419.000000C298.000000 -418.000000,278.000000 -406.000000,278.000000 -380.000000C278.000000 -352.000000,299.000000 -337.000000,321.000000 -337.000000C339.000000 -337.000000,364.000000 -349.000000,364.000000 -381.000000C364.000000 -413.000000,333.000000 -442.000000,290.000000 -442.000000C217.000000 -442.000000,181.000000 -375.000000,167.000000 -332.000000"></path>
    </g>
    <g transform="scale(0.009963,0.009963)" id="GLYPHcmr10_115">
      <path style="fill-rule: evenodd;" d="M208.000000 -194.000000C230.000000 -190.000000,312.000000 -174.000000,312.000000 -102.000000C312.000000 -51.000000,277.000000 -11.000000,199.000000 -11.000000C115.000000 -11.000000,79.000000 -68.000000,60.000000 -153.000000C57.000000 -166.000000,56.000000 -170.000000,46.000000 -170.000000C33.000000 -170.000000,33.000000 -163.000000,33.000000 -145.000000L33.000000 -13.000000C33.000000 4.000000,33.000000 11.000000,44.000000 11.000000C49.000000 11.000000,50.000000 10.000000,69.000000 -9.000000C71.000000 -11.000000,71.000000 -13.000000,89.000000 -32.000000C133.000000 10.000000,178.000000 11.000000,199.000000 11.000000C314.000000 11.000000,360.000000 -56.000000,360.000000 -128.000000C360.000000 -181.000000,330.000000 -211.000000,318.000000 -223.000000C285.000000 -255.000000,246.000000 -263.000000,204.000000 -271.000000C148.000000 -282.000000,81.000000 -295.000000,81.000000 -353.000000C81.000000 -388.000000,107.000000 -429.000000,193.000000 -429.000000C303.000000 -429.000000,308.000000 -339.000000,310.000000 -308.000000C311.000000 -299.000000,320.000000 -299.000000,322.000000 -299.000000C335.000000 -299.000000,335.000000 -304.000000,335.000000 -323.000000L335.000000 -424.000000C335.000000 -441.000000,335.000000 -448.000000,324.000000 -448.000000C319.000000 -448.000000,317.000000 -448.000000,304.000000 -436.000000C301.000000 -432.000000,291.000000 -423.000000,287.000000 -420.000000C249.000000 -448.000000,208.000000 -448.000000,193.000000 -448.000000C71.000000 -448.000000,33.000000 -381.000000,33.000000 -325.000000C33.000000 -290.000000,49.000000 -262.000000,76.000000 -240.000000C108.000000 -214.000000,136.000000 -208.000000,208.000000 -194.000000"></path>
    </g>
    <g transform="scale(0.009963,0.009963)" id="GLYPHcmr10_116">
      <path style="fill-rule: evenodd;" d="M173.000000 -400.000000L316.000000 -400.000000L316.000000 -431.000000L173.000000 -431.000000L173.000000 -615.000000L148.000000 -615.000000C147.000000 -533.000000,117.000000 -426.000000,19.000000 -422.000000L19.000000 -400.000000L104.000000 -400.000000L104.000000 -124.000000C104.000000 -1.000000,197.000000 11.000000,233.000000 11.000000C304.000000 11.000000,332.000000 -60.000000,332.000000 -124.000000L332.000000 -181.000000L307.000000 -181.000000L307.000000 -126.000000C307.000000 -52.000000,277.000000 -14.000000,240.000000 -14.000000C173.000000 -14.000000,173.000000 -105.000000,173.000000 -122.000000"></path>
    </g>
    <g transform="scale(0.009963,0.009963)" id="GLYPHcmr10_117">
      <path style="fill-rule: evenodd;" d="M391.000000 -79.000000L391.000000 11.000000L535.000000 -0.000000L535.000000 -31.000000C465.000000 -31.000000,457.000000 -38.000000,457.000000 -87.000000L457.000000 -442.000000L310.000000 -431.000000L310.000000 -400.000000C380.000000 -400.000000,388.000000 -393.000000,388.000000 -344.000000L388.000000 -166.000000C388.000000 -79.000000,340.000000 -11.000000,267.000000 -11.000000C183.000000 -11.000000,179.000000 -58.000000,179.000000 -110.000000L179.000000 -442.000000L32.000000 -431.000000L32.000000 -400.000000C110.000000 -400.000000,110.000000 -397.000000,110.000000 -308.000000L110.000000 -158.000000C110.000000 -80.000000,110.000000 11.000000,262.000000 11.000000C318.000000 11.000000,362.000000 -17.000000,391.000000 -79.000000"></path>
    </g>
    <g transform="scale(0.009963,0.009963)" id="GLYPHcmr10_120">
      <path style="fill-rule: evenodd;" d="M287.000000 -235.000000C317.000000 -273.000000,355.000000 -322.000000,379.000000 -348.000000C410.000000 -384.000000,451.000000 -399.000000,498.000000 -400.000000L498.000000 -431.000000C472.000000 -429.000000,442.000000 -428.000000,416.000000 -428.000000C386.000000 -428.000000,333.000000 -430.000000,320.000000 -431.000000L320.000000 -400.000000C341.000000 -398.000000,349.000000 -385.000000,349.000000 -369.000000C349.000000 -353.000000,339.000000 -340.000000,334.000000 -334.000000L272.000000 -256.000000L194.000000 -357.000000C185.000000 -367.000000,185.000000 -369.000000,185.000000 -375.000000C185.000000 -390.000000,200.000000 -399.000000,220.000000 -400.000000L220.000000 -431.000000C194.000000 -430.000000,128.000000 -428.000000,112.000000 -428.000000C91.000000 -428.000000,44.000000 -429.000000,17.000000 -431.000000L17.000000 -400.000000C87.000000 -400.000000,88.000000 -399.000000,135.000000 -339.000000L234.000000 -210.000000L140.000000 -91.000000C92.000000 -33.000000,33.000000 -31.000000,12.000000 -31.000000L12.000000 -0.000000C38.000000 -2.000000,69.000000 -3.000000,95.000000 -3.000000C124.000000 -3.000000,166.000000 -1.000000,190.000000 -0.000000L190.000000 -31.000000C168.000000 -34.000000,161.000000 -47.000000,161.000000 -62.000000C161.000000 -84.000000,190.000000 -117.000000,251.000000 -189.000000L327.000000 -89.000000C335.000000 -78.000000,348.000000 -62.000000,348.000000 -56.000000C348.000000 -47.000000,339.000000 -32.000000,312.000000 -31.000000L312.000000 -0.000000C342.000000 -1.000000,398.000000 -3.000000,420.000000 -3.000000C447.000000 -3.000000,486.000000 -2.000000,516.000000 -0.000000L516.000000 -31.000000C462.000000 -31.000000,444.000000 -33.000000,421.000000 -62.000000"></path>
    </g>
    <g transform="scale(0.009963,0.009963)" id="GLYPHcmr10_121">
      <path style="fill-rule: evenodd;" d="M415.000000 -336.000000C441.000000 -399.000000,492.000000 -400.000000,508.000000 -400.000000L508.000000 -431.000000C485.000000 -429.000000,456.000000 -428.000000,433.000000 -428.000000C415.000000 -428.000000,368.000000 -430.000000,346.000000 -431.000000L346.000000 -400.000000C377.000000 -399.000000,393.000000 -382.000000,393.000000 -357.000000C393.000000 -347.000000,392.000000 -345.000000,387.000000 -333.000000L286.000000 -87.000000L175.000000 -356.000000C171.000000 -366.000000,169.000000 -370.000000,169.000000 -374.000000C169.000000 -400.000000,206.000000 -400.000000,225.000000 -400.000000L225.000000 -431.000000C199.000000 -430.000000,133.000000 -428.000000,116.000000 -428.000000C89.000000 -428.000000,49.000000 -429.000000,19.000000 -431.000000L19.000000 -400.000000C67.000000 -400.000000,86.000000 -400.000000,100.000000 -365.000000L250.000000 -0.000000C245.000000 13.000000,231.000000 46.000000,225.000000 59.000000C203.000000 114.000000,175.000000 183.000000,111.000000 183.000000C106.000000 183.000000,83.000000 183.000000,64.000000 165.000000C95.000000 161.000000,103.000000 139.000000,103.000000 123.000000C103.000000 97.000000,84.000000 81.000000,61.000000 81.000000C41.000000 81.000000,19.000000 94.000000,19.000000 124.000000C19.000000 169.000000,61.000000 205.000000,111.000000 205.000000C174.000000 205.000000,215.000000 148.000000,239.000000 91.000000"></path>
    </g>
    <g transform="scale(0.009963,0.009963)" id="GLYPHcmr10_122">
      <path style="fill-rule: evenodd;" d="M390.000000 -401.000000C399.000000 -412.000000,399.000000 -414.000000,399.000000 -418.000000C399.000000 -431.000000,391.000000 -431.000000,373.000000 -431.000000L53.000000 -431.000000L42.000000 -270.000000L67.000000 -270.000000C73.000000 -372.000000,92.000000 -409.000000,202.000000 -409.000000L316.000000 -409.000000L37.000000 -32.000000C28.000000 -21.000000,28.000000 -19.000000,28.000000 -14.000000C28.000000 -0.000000,35.000000 -0.000000,54.000000 -0.000000L384.000000 -0.000000L401.000000 -187.000000L376.000000 -187.000000C367.000000 -69.000000,346.000000 -25.000000,230.000000 -25.000000L112.000000 -25.000000"></path>
    </g>
    <g transform="scale(0.009963,0.009963)" id="GLYPHcmsy10_102">
      <path style="fill-rule: evenodd;" d="M283.000000 -617.000000C283.000000 -657.000000,309.000000 -721.000000,418.000000 -728.000000C423.000000 -729.000000,427.000000 -733.000000,427.000000 -739.000000C427.000000 -750.000000,419.000000 -750.000000,408.000000 -750.000000C308.000000 -750.000000,217.000000 -699.000000,216.000000 -625.000000L216.000000 -397.000000C216.000000 -358.000000,216.000000 -326.000000,176.000000 -293.000000C141.000000 -264.000000,103.000000 -262.000000,81.000000 -261.000000C76.000000 -260.000000,72.000000 -256.000000,72.000000 -250.000000C72.000000 -240.000000,78.000000 -240.000000,88.000000 -239.000000C154.000000 -235.000000,202.000000 -199.000000,213.000000 -150.000000C216.000000 -139.000000,216.000000 -137.000000,216.000000 -101.000000L216.000000 97.000000C216.000000 139.000000,216.000000 171.000000,264.000000 209.000000C303.000000 239.000000,369.000000 250.000000,408.000000 250.000000C419.000000 250.000000,427.000000 250.000000,427.000000 239.000000C427.000000 229.000000,421.000000 229.000000,411.000000 228.000000C348.000000 224.000000,299.000000 192.000000,286.000000 141.000000C283.000000 132.000000,283.000000 130.000000,283.000000 94.000000L283.000000 -116.000000C283.000000 -162.000000,275.000000 -179.000000,243.000000 -211.000000C222.000000 -232.000000,193.000000 -242.000000,165.000000 -250.000000C247.000000 -273.000000,283.000000 -319.000000,283.000000 -377.000000"></path>
    </g>
  </defs>
  <path d="M42.000000 454.282715L221.327545 454.282715L221.327545 430.372375L42.000000 430.372375Z" style="stroke:rgb(0.000000%,0.000000%,0.000000%); stroke-width: 0.500000;stroke-linecap: round;stroke-linejoin: round;stroke-miterlimit: 10.000000;fill: none;"></path>
  <path d="M77.865509 454.282715L77.865509 430.372375" style="stroke:rgb(0.000000%,0.000000%,0.000000%); stroke-width: 0.500000;stroke-linecap: round;stroke-linejoin: round;stroke-miterlimit: 10.000000;fill: none;"></path>
  <path d="M113.731018 454.282715L113.731018 430.372375" style="stroke:rgb(0.000000%,0.000000%,0.000000%); stroke-width: 0.500000;stroke-linecap: round;stroke-linejoin: round;stroke-miterlimit: 10.000000;fill: none;"></path>
  <path d="M42.000000 430.372375L221.327545 430.372375L221.327545 406.462036L42.000000 406.462036Z" style="stroke:rgb(0.000000%,0.000000%,0.000000%); stroke-width: 0.500000;stroke-linecap: round;stroke-linejoin: round;stroke-miterlimit: 10.000000;fill: none;"></path>
  <path d="M77.865509 430.372375L77.865509 406.462036" style="stroke:rgb(0.000000%,0.000000%,0.000000%); stroke-width: 0.500000;stroke-linecap: round;stroke-linejoin: round;stroke-miterlimit: 10.000000;fill: none;"></path>
  <path d="M113.731018 430.372375L113.731018 406.462036" style="stroke:rgb(0.000000%,0.000000%,0.000000%); stroke-width: 0.500000;stroke-linecap: round;stroke-linejoin: round;stroke-miterlimit: 10.000000;fill: none;"></path>
  <g transform="translate(53.000397 415.417206)" style="fill: rgb(0.000000%,0.000000%,0.000000%);">
    <use xlink:href="#GLYPHcmr10_99"></use>
    <use xlink:href="#GLYPHcmr10_100" x="4.444529"></use>
    <use xlink:href="#GLYPHcmr10_114" x="10.000190"></use>
  </g>
  <g transform="translate(50.108444 427.372375)" style="fill: rgb(0.000000%,0.000000%,0.000000%);">
    <use xlink:href="#GLYPHcmr10_99"></use>
    <use xlink:href="#GLYPHcmr10_111" x="4.444529"></use>
  </g>
  <g transform="translate(59.794342 427.372375)" style="fill: rgb(0.000000%,0.000000%,0.000000%);">
    <use xlink:href="#GLYPHcmr10_100"></use>
    <use xlink:href="#GLYPHcmr10_101" x="5.555661"></use>
  </g>
  <g transform="translate(86.665817 413.480011)" style="fill: rgb(0.000000%,0.000000%,0.000000%);">
    <use xlink:href="#GLYPHcmr10_99"></use>
    <use xlink:href="#GLYPHcmr10_109" x="4.444529"></use>
    <use xlink:href="#GLYPHcmr10_112" x="12.778020"></use>
  </g>
  <g transform="translate(91.508759 427.372375)" style="fill: rgb(0.000000%,0.000000%,0.000000%);">
    <use xlink:href="#GLYPHcmr10_102"></use>
    <use xlink:href="#GLYPHcmr10_110" x="3.055621"></use>
  </g>
  <g transform="translate(137.018631 421.394791)" style="fill: rgb(0.000000%,0.000000%,0.000000%);">
    <use xlink:href="#GLYPHcmr10_51"></use>
    <use xlink:href="#GLYPHcmr10_50" x="5.000095"></use>
    <use xlink:href="#GLYPHcmr10_45" x="10.000190"></use>
    <use xlink:href="#GLYPHcmr10_98" x="13.333586"></use>
    <use xlink:href="#GLYPHcmr10_105" x="18.889247"></use>
    <use xlink:href="#GLYPHcmr10_116" x="21.667078"></use>
  </g>
  <g transform="translate(165.799637 421.394791)" style="fill: rgb(0.000000%,0.000000%,0.000000%);">
    <use xlink:href="#GLYPHcmr10_97"></use>
    <use xlink:href="#GLYPHcmr10_100" x="5.000095"></use>
    <use xlink:href="#GLYPHcmr10_100" x="10.555756"></use>
    <use xlink:href="#GLYPHcmr10_114" x="16.111417"></use>
    <use xlink:href="#GLYPHcmr10_101" x="20.028163"></use>
    <use xlink:href="#GLYPHcmr10_115" x="24.472692"></use>
    <use xlink:href="#GLYPHcmr10_115" x="28.417206"></use>
  </g>
  <g transform="translate(50.800308 437.390350)" style="fill: rgb(0.000000%,0.000000%,0.000000%);">
    <use xlink:href="#GLYPHcmr10_99"></use>
    <use xlink:href="#GLYPHcmr10_109" x="4.444529"></use>
    <use xlink:href="#GLYPHcmr10_112" x="12.778020"></use>
  </g>
  <g transform="translate(55.643250 451.282715)" style="fill: rgb(0.000000%,0.000000%,0.000000%);">
    <use xlink:href="#GLYPHcmr10_102"></use>
    <use xlink:href="#GLYPHcmr10_110" x="3.055621"></use>
  </g>
  <g transform="translate(85.268265 445.305130)" style="fill: rgb(0.000000%,0.000000%,0.000000%);">
    <use xlink:href="#GLYPHcmr10_104"></use>
    <use xlink:href="#GLYPHcmr10_100" x="5.555661"></use>
    <use xlink:href="#GLYPHcmr10_114" x="11.111322"></use>
    <use xlink:href="#GLYPHcmr10_45" x="15.028068"></use>
    <use xlink:href="#GLYPHcmr10_105" x="18.361465"></use>
  </g>
  <g transform="translate(116.692108 445.305130)" style="fill: rgb(0.000000%,0.000000%,0.000000%);">
    <use xlink:href="#GLYPHcmr10_115"></use>
    <use xlink:href="#GLYPHcmr10_117" x="3.944515"></use>
    <use xlink:href="#GLYPHcmr10_14" x="9.500176"></use>
    <use xlink:href="#GLYPHcmr10_120" x="17.833667"></use>
  </g>
  <g transform="translate(143.037811 445.305130)" style="fill: rgb(0.000000%,0.000000%,0.000000%);">
    <use xlink:href="#GLYPHcmr10_115"></use>
    <use xlink:href="#GLYPHcmr10_105" x="3.944515"></use>
    <use xlink:href="#GLYPHcmr10_122" x="6.722345"></use>
    <use xlink:href="#GLYPHcmr10_101" x="11.166874"></use>
  </g>
  <g transform="translate(171.763367 445.305130)" style="fill: rgb(0.000000%,0.000000%,0.000000%);">
    <use xlink:href="#GLYPHcmr10_116"></use>
    <use xlink:href="#GLYPHcmr10_111" x="3.888963"></use>
    <use xlink:href="#GLYPHcmr10_116" x="8.889057"></use>
    <use xlink:href="#GLYPHcmr10_97" x="12.778020"></use>
    <use xlink:href="#GLYPHcmr10_108" x="17.778115"></use>
  </g>
  <g transform="translate(195.563065 445.305130)" style="fill: rgb(0.000000%,0.000000%,0.000000%);">
    <use xlink:href="#GLYPHcmr10_115"></use>
    <use xlink:href="#GLYPHcmr10_105" x="3.944515"></use>
    <use xlink:href="#GLYPHcmr10_122" x="6.722345"></use>
    <use xlink:href="#GLYPHcmr10_101" x="11.166874"></use>
  </g>
  <path d="M161.552612 430.372375L161.552612 454.282715" style="stroke:rgb(0.000000%,0.000000%,0.000000%); stroke-width: 0.500000;stroke-linecap: round;stroke-linejoin: round;stroke-miterlimit: 10.000000;fill: none;"></path>
  <g transform="matrix(2.000000,-0.000000,-0.000000,4.000000,29.037415 440.334961)" style="fill: rgb(0.000000%,0.000000%,0.000000%);">
    <use xlink:href="#GLYPHcmsy10_102"></use>
  </g>
  <g transform="translate(2.387238 432.863037)" style="fill: rgb(0.000000%,0.000000%,0.000000%);">
    <use xlink:href="#GLYPHcmr10_112"></use>
    <use xlink:href="#GLYPHcmr10_114" x="5.555661"></use>
    <use xlink:href="#GLYPHcmr10_101" x="9.472407"></use>
    <use xlink:href="#GLYPHcmr10_12" x="13.916936"></use>
    <use xlink:href="#GLYPHcmr10_120" x="19.472597"></use>
  </g>
  <path d="M42.000000 310.820679L221.327545 310.820679L221.327545 286.910339L42.000000 286.910339Z" style="stroke:rgb(0.000000%,0.000000%,0.000000%); stroke-width: 0.500000;stroke-linecap: round;stroke-linejoin: round;stroke-miterlimit: 10.000000;fill: none;"></path>
  <path d="M77.865509 310.820679L77.865509 286.910339" style="stroke:rgb(0.000000%,0.000000%,0.000000%); stroke-width: 0.500000;stroke-linecap: round;stroke-linejoin: round;stroke-miterlimit: 10.000000;fill: none;"></path>
  <path d="M113.731018 310.820679L113.731018 286.910339" style="stroke:rgb(0.000000%,0.000000%,0.000000%); stroke-width: 0.500000;stroke-linecap: round;stroke-linejoin: round;stroke-miterlimit: 10.000000;fill: none;"></path>
  <g transform="translate(123.762787 301.843094)" style="fill: rgb(0.000000%,0.000000%,0.000000%);">
    <use xlink:href="#GLYPHcmr10_105"></use>
    <use xlink:href="#GLYPHcmr10_110" x="2.777830"></use>
    <use xlink:href="#GLYPHcmr10_115" x="8.333491"></use>
    <use xlink:href="#GLYPHcmr10_116" x="12.278006"></use>
    <use xlink:href="#GLYPHcmr10_114" x="16.166969"></use>
    <use xlink:href="#GLYPHcmr10_32" x="20.083715"></use>
    <use xlink:href="#GLYPHcmr10_50" x="22.861545"></use>
  </g>
  <g transform="translate(177.561050 301.843094)" style="fill: rgb(0.000000%,0.000000%,0.000000%);">
    <use xlink:href="#GLYPHcmr10_105"></use>
    <use xlink:href="#GLYPHcmr10_110" x="2.777830"></use>
    <use xlink:href="#GLYPHcmr10_115" x="8.333491"></use>
    <use xlink:href="#GLYPHcmr10_116" x="12.278006"></use>
    <use xlink:href="#GLYPHcmr10_114" x="16.166969"></use>
    <use xlink:href="#GLYPHcmr10_32" x="20.083715"></use>
    <use xlink:href="#GLYPHcmr10_49" x="22.861545"></use>
  </g>
  <path d="M167.529282 310.820679L167.529282 286.910339" style="stroke:rgb(0.000000%,0.000000%,0.000000%); stroke-width: 0.500000;stroke-linecap: round;stroke-linejoin: round;stroke-miterlimit: 10.000000;fill: none;"></path>
  <path d="M42.000000 286.910339L221.327545 286.910339L221.327545 263.000000L42.000000 263.000000Z" style="stroke:rgb(0.000000%,0.000000%,0.000000%); stroke-width: 0.500000;stroke-linecap: round;stroke-linejoin: round;stroke-miterlimit: 10.000000;fill: none;"></path>
  <path d="M77.865509 286.910339L77.865509 263.000000" style="stroke:rgb(0.000000%,0.000000%,0.000000%); stroke-width: 0.500000;stroke-linecap: round;stroke-linejoin: round;stroke-miterlimit: 10.000000;fill: none;"></path>
  <path d="M113.731018 286.910339L113.731018 263.000000" style="stroke:rgb(0.000000%,0.000000%,0.000000%); stroke-width: 0.500000;stroke-linecap: round;stroke-linejoin: round;stroke-miterlimit: 10.000000;fill: none;"></path>
  <g transform="translate(123.762787 277.932755)" style="fill: rgb(0.000000%,0.000000%,0.000000%);">
    <use xlink:href="#GLYPHcmr10_105"></use>
    <use xlink:href="#GLYPHcmr10_110" x="2.777830"></use>
    <use xlink:href="#GLYPHcmr10_115" x="8.333491"></use>
    <use xlink:href="#GLYPHcmr10_116" x="12.278006"></use>
    <use xlink:href="#GLYPHcmr10_114" x="16.166969"></use>
    <use xlink:href="#GLYPHcmr10_32" x="20.083715"></use>
    <use xlink:href="#GLYPHcmr10_52" x="22.861545"></use>
  </g>
  <g transform="translate(177.561050 277.932755)" style="fill: rgb(0.000000%,0.000000%,0.000000%);">
    <use xlink:href="#GLYPHcmr10_105"></use>
    <use xlink:href="#GLYPHcmr10_110" x="2.777830"></use>
    <use xlink:href="#GLYPHcmr10_115" x="8.333491"></use>
    <use xlink:href="#GLYPHcmr10_116" x="12.278006"></use>
    <use xlink:href="#GLYPHcmr10_114" x="16.166969"></use>
    <use xlink:href="#GLYPHcmr10_32" x="20.083715"></use>
    <use xlink:href="#GLYPHcmr10_51" x="22.861545"></use>
  </g>
  <path d="M167.529282 286.910339L167.529282 263.000000" style="stroke:rgb(0.000000%,0.000000%,0.000000%); stroke-width: 0.500000;stroke-linecap: round;stroke-linejoin: round;stroke-miterlimit: 10.000000;fill: none;"></path>
  <path d="M42.000000 263.000000L221.327545 263.000000L221.327545 239.089661L42.000000 239.089661Z" style="stroke:rgb(0.000000%,0.000000%,0.000000%); stroke-width: 0.500000;stroke-linecap: round;stroke-linejoin: round;stroke-miterlimit: 10.000000;fill: none;"></path>
  <path d="M77.865509 263.000000L77.865509 239.089661" style="stroke:rgb(0.000000%,0.000000%,0.000000%); stroke-width: 0.500000;stroke-linecap: round;stroke-linejoin: round;stroke-miterlimit: 10.000000;fill: none;"></path>
  <path d="M113.731018 263.000000L113.731018 239.089661" style="stroke:rgb(0.000000%,0.000000%,0.000000%); stroke-width: 0.500000;stroke-linecap: round;stroke-linejoin: round;stroke-miterlimit: 10.000000;fill: none;"></path>
  <g transform="translate(123.762787 254.022415)" style="fill: rgb(0.000000%,0.000000%,0.000000%);">
    <use xlink:href="#GLYPHcmr10_105"></use>
    <use xlink:href="#GLYPHcmr10_110" x="2.777830"></use>
    <use xlink:href="#GLYPHcmr10_115" x="8.333491"></use>
    <use xlink:href="#GLYPHcmr10_116" x="12.278006"></use>
    <use xlink:href="#GLYPHcmr10_114" x="16.166969"></use>
    <use xlink:href="#GLYPHcmr10_32" x="20.083715"></use>
    <use xlink:href="#GLYPHcmr10_54" x="22.861545"></use>
  </g>
  <g transform="translate(177.561050 254.022415)" style="fill: rgb(0.000000%,0.000000%,0.000000%);">
    <use xlink:href="#GLYPHcmr10_105"></use>
    <use xlink:href="#GLYPHcmr10_110" x="2.777830"></use>
    <use xlink:href="#GLYPHcmr10_115" x="8.333491"></use>
    <use xlink:href="#GLYPHcmr10_116" x="12.278006"></use>
    <use xlink:href="#GLYPHcmr10_114" x="16.166969"></use>
    <use xlink:href="#GLYPHcmr10_32" x="20.083715"></use>
    <use xlink:href="#GLYPHcmr10_53" x="22.861545"></use>
  </g>
  <path d="M167.529282 263.000000L167.529282 239.089661" style="stroke:rgb(0.000000%,0.000000%,0.000000%); stroke-width: 0.500000;stroke-linecap: round;stroke-linejoin: round;stroke-miterlimit: 10.000000;fill: none;"></path>
  <path d="M42.000000 239.089661L221.327545 239.089661L221.327545 215.179321L42.000000 215.179321Z" style="stroke:rgb(0.000000%,0.000000%,0.000000%); stroke-width: 0.500000;stroke-linecap: round;stroke-linejoin: round;stroke-miterlimit: 10.000000;fill: none;"></path>
  <path d="M77.865509 239.089661L77.865509 215.179321" style="stroke:rgb(0.000000%,0.000000%,0.000000%); stroke-width: 0.500000;stroke-linecap: round;stroke-linejoin: round;stroke-miterlimit: 10.000000;fill: none;"></path>
  <path d="M113.731018 239.089661L113.731018 215.179321" style="stroke:rgb(0.000000%,0.000000%,0.000000%); stroke-width: 0.500000;stroke-linecap: round;stroke-linejoin: round;stroke-miterlimit: 10.000000;fill: none;"></path>
  <g transform="translate(123.762787 230.112076)" style="fill: rgb(0.000000%,0.000000%,0.000000%);">
    <use xlink:href="#GLYPHcmr10_105"></use>
    <use xlink:href="#GLYPHcmr10_110" x="2.777830"></use>
    <use xlink:href="#GLYPHcmr10_115" x="8.333491"></use>
    <use xlink:href="#GLYPHcmr10_116" x="12.278006"></use>
    <use xlink:href="#GLYPHcmr10_114" x="16.166969"></use>
    <use xlink:href="#GLYPHcmr10_32" x="20.083715"></use>
    <use xlink:href="#GLYPHcmr10_56" x="22.861545"></use>
  </g>
  <g transform="translate(177.561050 230.112076)" style="fill: rgb(0.000000%,0.000000%,0.000000%);">
    <use xlink:href="#GLYPHcmr10_105"></use>
    <use xlink:href="#GLYPHcmr10_110" x="2.777830"></use>
    <use xlink:href="#GLYPHcmr10_115" x="8.333491"></use>
    <use xlink:href="#GLYPHcmr10_116" x="12.278006"></use>
    <use xlink:href="#GLYPHcmr10_114" x="16.166969"></use>
    <use xlink:href="#GLYPHcmr10_32" x="20.083715"></use>
    <use xlink:href="#GLYPHcmr10_55" x="22.861545"></use>
  </g>
  <path d="M167.529282 239.089661L167.529282 215.179321" style="stroke:rgb(0.000000%,0.000000%,0.000000%); stroke-width: 0.500000;stroke-linecap: round;stroke-linejoin: round;stroke-miterlimit: 10.000000;fill: none;"></path>
  <path d="M42.000000 215.179321L221.327545 215.179321L221.327545 191.268982L42.000000 191.268982Z" style="stroke:rgb(0.000000%,0.000000%,0.000000%); stroke-width: 0.500000;stroke-linecap: round;stroke-linejoin: round;stroke-miterlimit: 10.000000;fill: none;"></path>
  <path d="M77.865509 215.179321L77.865509 191.268982" style="stroke:rgb(0.000000%,0.000000%,0.000000%); stroke-width: 0.500000;stroke-linecap: round;stroke-linejoin: round;stroke-miterlimit: 10.000000;fill: none;"></path>
  <path d="M113.731018 215.179321L113.731018 191.268982" style="stroke:rgb(0.000000%,0.000000%,0.000000%); stroke-width: 0.500000;stroke-linecap: round;stroke-linejoin: round;stroke-miterlimit: 10.000000;fill: none;"></path>
  <g transform="translate(121.272125 206.201736)" style="fill: rgb(0.000000%,0.000000%,0.000000%);">
    <use xlink:href="#GLYPHcmr10_105"></use>
    <use xlink:href="#GLYPHcmr10_110" x="2.777830"></use>
    <use xlink:href="#GLYPHcmr10_115" x="8.333491"></use>
    <use xlink:href="#GLYPHcmr10_116" x="12.278006"></use>
    <use xlink:href="#GLYPHcmr10_114" x="16.166969"></use>
    <use xlink:href="#GLYPHcmr10_32" x="20.083715"></use>
    <use xlink:href="#GLYPHcmr10_49" x="22.861545"></use>
    <use xlink:href="#GLYPHcmr10_48" x="27.861640"></use>
  </g>
  <g transform="translate(177.561050 206.201736)" style="fill: rgb(0.000000%,0.000000%,0.000000%);">
    <use xlink:href="#GLYPHcmr10_105"></use>
    <use xlink:href="#GLYPHcmr10_110" x="2.777830"></use>
    <use xlink:href="#GLYPHcmr10_115" x="8.333491"></use>
    <use xlink:href="#GLYPHcmr10_116" x="12.278006"></use>
    <use xlink:href="#GLYPHcmr10_114" x="16.166969"></use>
    <use xlink:href="#GLYPHcmr10_32" x="20.083715"></use>
    <use xlink:href="#GLYPHcmr10_57" x="22.861545"></use>
  </g>
  <path d="M167.529282 215.179321L167.529282 191.268982" style="stroke:rgb(0.000000%,0.000000%,0.000000%); stroke-width: 0.500000;stroke-linecap: round;stroke-linejoin: round;stroke-miterlimit: 10.000000;fill: none;"></path>
  <path d="M42.000000 191.268982L221.327545 191.268982L221.327545 167.358643L42.000000 167.358643Z" style="stroke:rgb(0.000000%,0.000000%,0.000000%); stroke-width: 0.500000;stroke-linecap: round;stroke-linejoin: round;stroke-miterlimit: 10.000000;fill: none;"></path>
  <path d="M77.865509 191.268982L77.865509 167.358643" style="stroke:rgb(0.000000%,0.000000%,0.000000%); stroke-width: 0.500000;stroke-linecap: round;stroke-linejoin: round;stroke-miterlimit: 10.000000;fill: none;"></path>
  <path d="M113.731018 191.268982L113.731018 167.358643" style="stroke:rgb(0.000000%,0.000000%,0.000000%); stroke-width: 0.500000;stroke-linecap: round;stroke-linejoin: round;stroke-miterlimit: 10.000000;fill: none;"></path>
  <g transform="translate(121.272125 182.291397)" style="fill: rgb(0.000000%,0.000000%,0.000000%);">
    <use xlink:href="#GLYPHcmr10_105"></use>
    <use xlink:href="#GLYPHcmr10_110" x="2.777830"></use>
    <use xlink:href="#GLYPHcmr10_115" x="8.333491"></use>
    <use xlink:href="#GLYPHcmr10_116" x="12.278006"></use>
    <use xlink:href="#GLYPHcmr10_114" x="16.166969"></use>
    <use xlink:href="#GLYPHcmr10_32" x="20.083715"></use>
    <use xlink:href="#GLYPHcmr10_49" x="22.861545"></use>
    <use xlink:href="#GLYPHcmr10_50" x="27.861640"></use>
  </g>
  <g transform="translate(175.070389 182.291397)" style="fill: rgb(0.000000%,0.000000%,0.000000%);">
    <use xlink:href="#GLYPHcmr10_105"></use>
    <use xlink:href="#GLYPHcmr10_110" x="2.777830"></use>
    <use xlink:href="#GLYPHcmr10_115" x="8.333491"></use>
    <use xlink:href="#GLYPHcmr10_116" x="12.278006"></use>
    <use xlink:href="#GLYPHcmr10_114" x="16.166969"></use>
    <use xlink:href="#GLYPHcmr10_32" x="20.083715"></use>
    <use xlink:href="#GLYPHcmr10_49" x="22.861545"></use>
    <use xlink:href="#GLYPHcmr10_49" x="27.861640"></use>
  </g>
  <path d="M167.529282 191.268982L167.529282 167.358643" style="stroke:rgb(0.000000%,0.000000%,0.000000%); stroke-width: 0.500000;stroke-linecap: round;stroke-linejoin: round;stroke-miterlimit: 10.000000;fill: none;"></path>
  <path d="M42.000000 167.358643L221.327545 167.358643L221.327545 143.448303L42.000000 143.448303Z" style="stroke:rgb(0.000000%,0.000000%,0.000000%); stroke-width: 0.500000;stroke-linecap: round;stroke-linejoin: round;stroke-miterlimit: 10.000000;fill: none;"></path>
  <path d="M77.865509 167.358643L77.865509 143.448303" style="stroke:rgb(0.000000%,0.000000%,0.000000%); stroke-width: 0.500000;stroke-linecap: round;stroke-linejoin: round;stroke-miterlimit: 10.000000;fill: none;"></path>
  <path d="M113.731018 167.358643L113.731018 143.448303" style="stroke:rgb(0.000000%,0.000000%,0.000000%); stroke-width: 0.500000;stroke-linecap: round;stroke-linejoin: round;stroke-miterlimit: 10.000000;fill: none;"></path>
  <g transform="translate(121.272125 158.381058)" style="fill: rgb(0.000000%,0.000000%,0.000000%);">
    <use xlink:href="#GLYPHcmr10_105"></use>
    <use xlink:href="#GLYPHcmr10_110" x="2.777830"></use>
    <use xlink:href="#GLYPHcmr10_115" x="8.333491"></use>
    <use xlink:href="#GLYPHcmr10_116" x="12.278006"></use>
    <use xlink:href="#GLYPHcmr10_114" x="16.166969"></use>
    <use xlink:href="#GLYPHcmr10_32" x="20.083715"></use>
    <use xlink:href="#GLYPHcmr10_49" x="22.861545"></use>
    <use xlink:href="#GLYPHcmr10_52" x="27.861640"></use>
  </g>
  <g transform="translate(175.070389 158.381058)" style="fill: rgb(0.000000%,0.000000%,0.000000%);">
    <use xlink:href="#GLYPHcmr10_105"></use>
    <use xlink:href="#GLYPHcmr10_110" x="2.777830"></use>
    <use xlink:href="#GLYPHcmr10_115" x="8.333491"></use>
    <use xlink:href="#GLYPHcmr10_116" x="12.278006"></use>
    <use xlink:href="#GLYPHcmr10_114" x="16.166969"></use>
    <use xlink:href="#GLYPHcmr10_32" x="20.083715"></use>
    <use xlink:href="#GLYPHcmr10_49" x="22.861545"></use>
    <use xlink:href="#GLYPHcmr10_51" x="27.861640"></use>
  </g>
  <path d="M167.529282 167.358643L167.529282 143.448303" style="stroke:rgb(0.000000%,0.000000%,0.000000%); stroke-width: 0.500000;stroke-linecap: round;stroke-linejoin: round;stroke-miterlimit: 10.000000;fill: none;"></path>
  <path d="M42.000000 143.448303L221.327545 143.448303L221.327545 119.537964L42.000000 119.537964Z" style="stroke:rgb(0.000000%,0.000000%,0.000000%); stroke-width: 0.500000;stroke-linecap: round;stroke-linejoin: round;stroke-miterlimit: 10.000000;fill: none;"></path>
  <path d="M77.865509 143.448303L77.865509 119.537964" style="stroke:rgb(0.000000%,0.000000%,0.000000%); stroke-width: 0.500000;stroke-linecap: round;stroke-linejoin: round;stroke-miterlimit: 10.000000;fill: none;"></path>
  <path d="M113.731018 143.448303L113.731018 119.537964" style="stroke:rgb(0.000000%,0.000000%,0.000000%); stroke-width: 0.500000;stroke-linecap: round;stroke-linejoin: round;stroke-miterlimit: 10.000000;fill: none;"></path>
  <g transform="translate(121.272125 134.470718)" style="fill: rgb(0.000000%,0.000000%,0.000000%);">
    <use xlink:href="#GLYPHcmr10_105"></use>
    <use xlink:href="#GLYPHcmr10_110" x="2.777830"></use>
    <use xlink:href="#GLYPHcmr10_115" x="8.333491"></use>
    <use xlink:href="#GLYPHcmr10_116" x="12.278006"></use>
    <use xlink:href="#GLYPHcmr10_114" x="16.166969"></use>
    <use xlink:href="#GLYPHcmr10_32" x="20.083715"></use>
    <use xlink:href="#GLYPHcmr10_49" x="22.861545"></use>
    <use xlink:href="#GLYPHcmr10_54" x="27.861640"></use>
  </g>
  <g transform="translate(175.070389 134.470718)" style="fill: rgb(0.000000%,0.000000%,0.000000%);">
    <use xlink:href="#GLYPHcmr10_105"></use>
    <use xlink:href="#GLYPHcmr10_110" x="2.777830"></use>
    <use xlink:href="#GLYPHcmr10_115" x="8.333491"></use>
    <use xlink:href="#GLYPHcmr10_116" x="12.278006"></use>
    <use xlink:href="#GLYPHcmr10_114" x="16.166969"></use>
    <use xlink:href="#GLYPHcmr10_32" x="20.083715"></use>
    <use xlink:href="#GLYPHcmr10_49" x="22.861545"></use>
    <use xlink:href="#GLYPHcmr10_53" x="27.861640"></use>
  </g>
  <path d="M167.529282 143.448303L167.529282 119.537964" style="stroke:rgb(0.000000%,0.000000%,0.000000%); stroke-width: 0.500000;stroke-linecap: round;stroke-linejoin: round;stroke-miterlimit: 10.000000;fill: none;"></path>
  <path d="M42.000000 119.537964L221.327545 119.537964L221.327545 95.627625L42.000000 95.627625Z" style="stroke:rgb(0.000000%,0.000000%,0.000000%); stroke-width: 0.500000;stroke-linecap: round;stroke-linejoin: round;stroke-miterlimit: 10.000000;fill: none;"></path>
  <path d="M77.865509 119.537964L77.865509 95.627625" style="stroke:rgb(0.000000%,0.000000%,0.000000%); stroke-width: 0.500000;stroke-linecap: round;stroke-linejoin: round;stroke-miterlimit: 10.000000;fill: none;"></path>
  <path d="M113.731018 119.537964L113.731018 95.627625" style="stroke:rgb(0.000000%,0.000000%,0.000000%); stroke-width: 0.500000;stroke-linecap: round;stroke-linejoin: round;stroke-miterlimit: 10.000000;fill: none;"></path>
  <g transform="translate(121.272125 110.560379)" style="fill: rgb(0.000000%,0.000000%,0.000000%);">
    <use xlink:href="#GLYPHcmr10_105"></use>
    <use xlink:href="#GLYPHcmr10_110" x="2.777830"></use>
    <use xlink:href="#GLYPHcmr10_115" x="8.333491"></use>
    <use xlink:href="#GLYPHcmr10_116" x="12.278006"></use>
    <use xlink:href="#GLYPHcmr10_114" x="16.166969"></use>
    <use xlink:href="#GLYPHcmr10_32" x="20.083715"></use>
    <use xlink:href="#GLYPHcmr10_49" x="22.861545"></use>
    <use xlink:href="#GLYPHcmr10_56" x="27.861640"></use>
  </g>
  <g transform="translate(175.070389 110.560379)" style="fill: rgb(0.000000%,0.000000%,0.000000%);">
    <use xlink:href="#GLYPHcmr10_105"></use>
    <use xlink:href="#GLYPHcmr10_110" x="2.777830"></use>
    <use xlink:href="#GLYPHcmr10_115" x="8.333491"></use>
    <use xlink:href="#GLYPHcmr10_116" x="12.278006"></use>
    <use xlink:href="#GLYPHcmr10_114" x="16.166969"></use>
    <use xlink:href="#GLYPHcmr10_32" x="20.083715"></use>
    <use xlink:href="#GLYPHcmr10_49" x="22.861545"></use>
    <use xlink:href="#GLYPHcmr10_55" x="27.861640"></use>
  </g>
  <path d="M167.529282 119.537964L167.529282 95.627625" style="stroke:rgb(0.000000%,0.000000%,0.000000%); stroke-width: 0.500000;stroke-linecap: round;stroke-linejoin: round;stroke-miterlimit: 10.000000;fill: none;"></path>
  <path d="M167.529282 406.462036L167.529282 358.641357L59.932755 358.641357L59.932755 310.820679" style="stroke:rgb(0.000000%,0.000000%,0.000000%); stroke-width: 0.500000;stroke-linecap: round;stroke-linejoin: round;stroke-miterlimit: 10.000000;fill: none;"></path>
  <path d="M61.463562 314.516281L59.932755 310.820679L58.401947 314.516281Z" style="stroke:rgb(0.000000%,0.000000%,0.000000%); stroke-width: 0.500000;fill: rgb(0.000000%,0.000000%,0.000000%);"></path>
  <g transform="matrix(3.000000,-0.000000,-0.000000,19.000000,24.056122 250.546448)" style="fill: rgb(0.000000%,0.000000%,0.000000%);">
    <use xlink:href="#GLYPHcmsy10_102"></use>
  </g>
  <g transform="translate(-0.795258 205.714813)" style="fill: rgb(0.000000%,0.000000%,0.000000%);">
    <use xlink:href="#GLYPHcmr10_98"></use>
  </g>
  <g transform="translate(5.016342 205.714813)" style="fill: rgb(0.000000%,0.000000%,0.000000%);">
    <use xlink:href="#GLYPHcmr10_111"></use>
  </g>
  <g transform="translate(10.274338 205.714813)" style="fill: rgb(0.000000%,0.000000%,0.000000%);">
    <use xlink:href="#GLYPHcmr10_100"></use>
    <use xlink:href="#GLYPHcmr10_121" x="5.555661"></use>
  </g>
  <path d="M42.000000 23.896606L221.327545 23.896606L221.327545 -0.013733L42.000000 -0.013733Z" style="stroke:rgb(0.000000%,0.000000%,0.000000%); stroke-width: 0.500000;stroke-linecap: round;stroke-linejoin: round;stroke-miterlimit: 10.000000;fill: none;"></path>
  <path d="M77.865509 23.896606L77.865509 -0.013733" style="stroke:rgb(0.000000%,0.000000%,0.000000%); stroke-width: 0.500000;stroke-linecap: round;stroke-linejoin: round;stroke-miterlimit: 10.000000;fill: none;"></path>
  <path d="M113.731018 23.896606L113.731018 -0.013733" style="stroke:rgb(0.000000%,0.000000%,0.000000%); stroke-width: 0.500000;stroke-linecap: round;stroke-linejoin: round;stroke-miterlimit: 10.000000;fill: none;"></path>
  <g transform="translate(53.000397 8.941437)" style="fill: rgb(0.000000%,0.000000%,0.000000%);">
    <use xlink:href="#GLYPHcmr10_99"></use>
    <use xlink:href="#GLYPHcmr10_100" x="4.444529"></use>
    <use xlink:href="#GLYPHcmr10_114" x="10.000190"></use>
  </g>
  <g transform="translate(54.397949 20.896606)" style="fill: rgb(0.000000%,0.000000%,0.000000%);">
    <use xlink:href="#GLYPHcmr10_110"></use>
    <use xlink:href="#GLYPHcmr10_105" x="5.555661"></use>
    <use xlink:href="#GLYPHcmr10_108" x="8.333491"></use>
  </g>
  <g transform="translate(89.128815 14.919022)" style="fill: rgb(0.000000%,0.000000%,0.000000%);">
    <use xlink:href="#GLYPHcmr10_108"></use>
    <use xlink:href="#GLYPHcmr10_105" x="2.777830"></use>
    <use xlink:href="#GLYPHcmr10_115" x="5.555661"></use>
    <use xlink:href="#GLYPHcmr10_116" x="9.500176"></use>
  </g>
  <g transform="translate(137.018631 14.919022)" style="fill: rgb(0.000000%,0.000000%,0.000000%);">
    <use xlink:href="#GLYPHcmr10_51"></use>
    <use xlink:href="#GLYPHcmr10_50" x="5.000095"></use>
    <use xlink:href="#GLYPHcmr10_45" x="10.000190"></use>
    <use xlink:href="#GLYPHcmr10_98" x="13.333586"></use>
    <use xlink:href="#GLYPHcmr10_105" x="18.889247"></use>
    <use xlink:href="#GLYPHcmr10_116" x="21.667078"></use>
  </g>
  <g transform="translate(165.799637 14.919022)" style="fill: rgb(0.000000%,0.000000%,0.000000%);">
    <use xlink:href="#GLYPHcmr10_97"></use>
    <use xlink:href="#GLYPHcmr10_100" x="5.000095"></use>
    <use xlink:href="#GLYPHcmr10_100" x="10.555756"></use>
    <use xlink:href="#GLYPHcmr10_114" x="16.111417"></use>
    <use xlink:href="#GLYPHcmr10_101" x="20.028163"></use>
    <use xlink:href="#GLYPHcmr10_115" x="24.472692"></use>
    <use xlink:href="#GLYPHcmr10_115" x="28.417206"></use>
  </g>
  <g transform="matrix(1.199997,-0.000000,-0.000000,2.000000,33.022461 16.922729)" style="fill: rgb(0.000000%,0.000000%,0.000000%);">
    <use xlink:href="#GLYPHcmsy10_102"></use>
  </g>
  <g transform="translate(4.020035 15.400696)" style="fill: rgb(0.000000%,0.000000%,0.000000%);">
    <use xlink:href="#GLYPHcmr10_115"></use>
    <use xlink:href="#GLYPHcmr10_117" x="3.944515"></use>
    <use xlink:href="#GLYPHcmr10_14" x="9.500176"></use>
    <use xlink:href="#GLYPHcmr10_120" x="17.833667"></use>
  </g>
</svg>
