<?xml version="1.0"?>
<!-- Created by MetaPost 2.00 on 2020.12.19:1709 -->
<svg version="1.1" xmlns="http://www.w3.org/2000/svg" xmlns:xlink="http://www.w3.org/1999/xlink" width="119.961197" height="66.459290" viewBox="0 0 119.961197 66.459290">
<!-- Original BoundingBox: -60.275848 -33.229645 59.685349 33.229645 -->
  <path d="M0.224152 21.044830C0.431320 21.044830,0.619583 20.938110,0.821945 20.897675C1.018433 20.858414,1.219864 20.882828,1.419739 20.890182C1.618973 20.897507,1.818268 20.887665,2.017532 20.882324C2.216751 20.876984,2.416046 20.876175,2.615326 20.874054L3.213120 20.865372L3.810928 20.856262L4.408722 20.846680L5.006516 20.836624L5.604309 20.826050L6.202103 20.814957L6.799896 20.803314L7.397690 20.791077L7.995483 20.778229L8.593277 20.764740L9.191071 20.750580L9.788864 20.735718L10.386673 20.720123L10.984467 20.703735L11.582260 20.686554L12.180054 20.668503L12.777847 20.649582L13.375641 20.629715L13.973434 20.608871L14.571228 20.587006L15.169022 20.564072L15.766815 20.540024L16.364609 20.514786L16.962418 20.488327L17.560211 20.460602L18.158005 20.431519L18.755798 20.401031L19.353592 20.369095L19.951385 20.335617L20.549179 20.300552L21.146973 20.263809L21.744766 20.225342L22.342560 20.185043L22.940353 20.142853L23.538162 20.098709L24.135956 20.052490L24.733749 20.004135L25.331543 19.953568L25.929337 19.900665L26.527130 19.845367L27.124924 19.787567L27.722717 19.727158L28.320511 19.664047L28.918304 19.598145L29.516098 19.529343L30.113907 19.457535L30.711700 19.382614L31.309494 19.304474L31.907288 19.223007L32.505081 19.138107L33.102875 19.049667L33.700668 18.957581L34.298462 18.861725L34.896255 18.761993L35.494049 18.658295L36.091843 18.550522L36.689651 18.438553L37.287445 18.322311L37.885239 18.201691L38.483032 18.076584L39.080826 17.946930L39.678619 17.812622L40.276413 17.673599L40.874207 17.529785L41.472000 17.381119L42.069794 17.227539L42.667587 17.069000L43.265396 16.905472L43.863190 16.736938L44.460983 16.563370L45.058777 16.384766L45.656570 16.201126L46.254364 16.012527L46.852158 15.818954L47.449951 15.620468L48.047745 15.417160L48.645538 15.209076L49.243332 14.996368L49.841141 14.779114L50.438934 14.557449L51.036728 14.331573L51.634521 14.101593L52.232315 13.867676L52.830109 13.630112L53.427902 13.389069L54.025696 13.144745L54.623489 12.897400L55.221283 12.647354L55.819077 12.394760L56.416885 12.140045L57.014679 11.883362L57.612473 11.625122L58.210266 11.365570L58.808060 11.105103L59.405853 10.843918L60.003647 10.582458L60.601440 10.320923L61.199234 10.059830L61.797028 9.799271L62.394821 9.539780L62.992630 9.281555L63.590424 9.024887L64.188217 8.770187L64.786011 8.517746L65.383804 8.267685L65.981598 8.020325L66.579391 7.776062L67.177185 7.534973L67.774979 7.297531L68.372772 7.063705L68.970566 6.833740L69.568375 6.607941L70.166168 6.386307L70.763962 6.169052L71.361755 5.956406L71.959549 5.748352L72.557343 5.545181L73.155136 5.346771L73.752930 5.153183L74.350723 4.964569L74.948517 4.781082L75.546310 4.602631L76.144119 4.429077L76.741913 4.260468L77.339706 4.097183L77.937500 3.938614L78.535294 3.785080L79.133087 3.636505L79.730881 3.492767L80.328674 3.353714L80.926468 3.219391L81.524261 3.089844L82.122055 2.964828L82.719864 2.844345L83.317657 2.728134L83.915451 2.616119L84.513245 2.508484L85.111038 2.404907L85.708832 2.305054L86.306625 2.209274L86.904419 2.117233L87.502213 2.028763L88.100006 1.944000L88.697800 1.862488L89.295609 1.784348L89.893402 1.709656L90.491196 1.637680L91.088989 1.569046L91.686783 1.503250L92.284576 1.440109L92.882370 1.379654L93.480164 1.321945L94.077957 1.266754L94.675751 1.213837L95.273544 1.163223L95.871353 1.114960L96.469147 1.068802L97.066940 1.024750L97.664734 0.982574L98.262527 0.942276L98.860321 0.903885L99.458115 0.867126L100.055908 0.832031L100.653702 0.798599L101.251495 0.766571L101.849289 0.736221L102.447098 0.707001L103.044891 0.679520L103.642685 0.652863L104.240479 0.627655L104.838272 0.603607L105.436066 0.580734L106.033859 0.558716L106.631653 0.538193L107.229446 0.518234L107.827240 0.499161L108.425034 0.481293L109.022842 0.464005L109.620636 0.447617L110.218430 0.432144L110.816223 0.417252L111.414017 0.402969L112.011810 0.389603L112.609604 0.376831L113.207397 0.364365L113.805191 0.352814L114.402985 0.341873L115.000778 0.331253L115.598587 0.321228L116.196381 0.311508L116.794174 0.302414L117.391968 0.293945L117.989761 0.285461L118.587555 0.277603L119.185349 0.270355L119.180969 18.168869L118.583176 18.174576L117.985382 18.180527L117.387589 18.186737L116.789795 18.193359L116.192001 18.200226L115.594208 18.207428L114.996414 18.214951L114.398605 18.222900L113.800812 18.231155L113.203018 18.239914L112.605225 18.249069L112.007431 18.258530L111.409637 18.268646L110.811844 18.279068L110.214050 18.290115L109.616257 18.301620L109.018463 18.313599L108.420670 18.326263L107.822861 18.339447L107.225067 18.353241L106.627274 18.367706L106.029480 18.382828L105.431686 18.398590L104.833893 18.415161L104.236099 18.432343L103.638306 18.450394L103.040512 18.469269L102.442719 18.488876L101.844925 18.509354L101.247116 18.530777L100.649323 18.553101L100.051529 18.576385L99.453735 18.600677L98.855942 18.625885L98.258148 18.652176L97.660355 18.679535L97.062561 18.708069L96.464767 18.737732L95.866974 18.768478L95.269180 18.800476L94.671371 18.833679L94.073578 18.868103L93.475784 18.903885L92.877991 18.940903L92.280197 18.979279L91.682404 19.018997L91.084610 19.060059L90.486816 19.102509L89.889023 19.146423L89.291229 19.191666L88.693436 19.238373L88.095627 19.286545L87.497833 19.336121L86.900040 19.387161L86.302246 19.439636L85.704453 19.493469L85.106659 19.548767L84.508865 19.605499L83.911072 19.663589L83.313278 19.723022L82.715485 19.783768L82.117691 19.845825L81.519882 19.909134L80.922089 19.973679L80.324295 20.039383L79.726501 20.106201L79.128708 20.174072L78.530914 20.242981L77.933121 20.312759L77.335327 20.383408L76.737534 20.454880L76.139740 20.527008L75.541946 20.599792L74.944138 20.673141L74.346344 20.746902L73.748550 20.821075L73.150757 20.895493L72.552963 20.970093L71.955170 21.044830L71.955170 21.044830C68.784317 21.044830,65.743713 22.304626,63.501755 24.546585C61.259796 26.788544,60.000000 29.829147,60.000000 33.000000C60.000000 36.170853,61.259796 39.211456,63.501755 41.453415C65.743713 43.695374,68.784317 44.955170,71.955170 44.955170L71.955170 44.955170L72.552963 45.029907L73.150757 45.104507L73.748550 45.178925L74.346344 45.253098L74.944138 45.326859L75.541946 45.400208L76.139740 45.472992L76.737534 45.545120L77.335327 45.616592L77.933121 45.687241L78.530914 45.757019L79.128708 45.825928L79.726501 45.893799L80.324295 45.960617L80.922089 46.026321L81.519882 46.090866L82.117691 46.154175L82.715485 46.216232L83.313278 46.276978L83.911072 46.336411L84.508865 46.394501L85.106659 46.451233L85.704453 46.506531L86.302246 46.560364L86.900040 46.612839L87.497833 46.663879L88.095627 46.713455L88.693436 46.761627L89.291229 46.808334L89.889023 46.853577L90.486816 46.897491L91.084610 46.939941L91.682404 46.981003L92.280197 47.020721L92.877991 47.059097L93.475784 47.096115L94.073578 47.131897L94.671371 47.166321L95.269180 47.199524L95.866974 47.231522L96.464767 47.262268L97.062561 47.291931L97.660355 47.320465L98.258148 47.347824L98.855942 47.374115L99.453735 47.399323L100.051529 47.423615L100.649323 47.446899L101.247116 47.469223L101.844925 47.490646L102.442719 47.511124L103.040512 47.530731L103.638306 47.549606L104.236099 47.567657L104.833893 47.584839L105.431686 47.601410L106.029480 47.617172L106.627274 47.632294L107.225067 47.646759L107.822861 47.660553L108.420670 47.673737L109.018463 47.686401L109.616257 47.698380L110.214050 47.709885L110.811844 47.720932L111.409637 47.731354L112.007431 47.741470L112.605225 47.750931L113.203018 47.760086L113.800812 47.768845L114.398605 47.777100L114.996414 47.785049L115.594208 47.792572L116.192001 47.799774L116.789795 47.806641L117.387589 47.813263L117.985382 47.819473L118.583176 47.825424L119.180969 47.831131L119.185349 65.729645L118.587555 65.722397L117.989761 65.714539L117.391968 65.706055L116.794174 65.697586L116.196381 65.688492L115.598587 65.678772L115.000778 65.668747L114.402985 65.658127L113.805191 65.647186L113.207397 65.635635L112.609604 65.623169L112.011810 65.610397L111.414017 65.597031L110.816223 65.582748L110.218430 65.567856L109.620636 65.552383L109.022842 65.535995L108.425034 65.518707L107.827240 65.500839L107.229446 65.481766L106.631653 65.461807L106.033859 65.441284L105.436066 65.419266L104.838272 65.396393L104.240479 65.372345L103.642685 65.347137L103.044891 65.320480L102.447098 65.292999L101.849289 65.263779L101.251495 65.233429L100.653702 65.201401L100.055908 65.167969L99.458115 65.132874L98.860321 65.096115L98.262527 65.057724L97.664734 65.017426L97.066940 64.975250L96.469147 64.931198L95.871353 64.885040L95.273544 64.836777L94.675751 64.786163L94.077957 64.733246L93.480164 64.678055L92.882370 64.620346L92.284576 64.559891L91.686783 64.496750L91.088989 64.430954L90.491196 64.362320L89.893402 64.290344L89.295609 64.215652L88.697800 64.137512L88.100006 64.056000L87.502213 63.971237L86.904419 63.882767L86.306625 63.790726L85.708832 63.694946L85.111038 63.595093L84.513245 63.491516L83.915451 63.383881L83.317657 63.271866L82.719864 63.155655L82.122055 63.035172L81.524261 62.910156L80.926468 62.780609L80.328674 62.646286L79.730881 62.507233L79.133087 62.363495L78.535294 62.214920L77.937500 62.061386L77.339706 61.902817L76.741913 61.739532L76.144119 61.570923L75.546310 61.397369L74.948517 61.218918L74.350723 61.035431L73.752930 60.846817L73.155136 60.653229L72.557343 60.454819L71.959549 60.251648L71.361755 60.043594L70.763962 59.830948L70.166168 59.613693L69.568375 59.392059L68.970566 59.166260L68.372772 58.936295L67.774979 58.702469L67.177185 58.465027L66.579391 58.223938L65.981598 57.979675L65.383804 57.732315L64.786011 57.482254L64.188217 57.229813L63.590424 56.975113L62.992630 56.718445L62.394821 56.460220L61.797028 56.200729L61.199234 55.940170L60.601440 55.679077L60.003647 55.417542L59.405853 55.156082L58.808060 54.894897L58.210266 54.634430L57.612473 54.374878L57.014679 54.116638L56.416885 53.859955L55.819077 53.605240L55.221283 53.352646L54.623489 53.102600L54.025696 52.855255L53.427902 52.610931L52.830109 52.369888L52.232315 52.132324L51.634521 51.898407L51.036728 51.668427L50.438934 51.442551L49.841141 51.220886L49.243332 51.003632L48.645538 50.790924L48.047745 50.582840L47.449951 50.379532L46.852158 50.181046L46.254364 49.987473L45.656570 49.798874L45.058777 49.615234L44.460983 49.436630L43.863190 49.263062L43.265396 49.094528L42.667587 48.931000L42.069794 48.772461L41.472000 48.618881L40.874207 48.470215L40.276413 48.326401L39.678619 48.187378L39.080826 48.053070L38.483032 47.923416L37.885239 47.798309L37.287445 47.677689L36.689651 47.561447L36.091843 47.449478L35.494049 47.341705L34.896255 47.238007L34.298462 47.138275L33.700668 47.042419L33.102875 46.950333L32.505081 46.861893L31.907288 46.776993L31.309494 46.695526L30.711700 46.617386L30.113907 46.542465L29.516098 46.470657L28.918304 46.401855L28.320511 46.335953L27.722717 46.272842L27.124924 46.212433L26.527130 46.154633L25.929337 46.099335L25.331543 46.046432L24.733749 45.995865L24.135956 45.947510L23.538162 45.901291L22.940353 45.857147L22.342560 45.814957L21.744766 45.774658L21.146973 45.736191L20.549179 45.699448L19.951385 45.664383L19.353592 45.630905L18.755798 45.598969L18.158005 45.568481L17.560211 45.539398L16.962418 45.511673L16.364609 45.485214L15.766815 45.459976L15.169022 45.435928L14.571228 45.412994L13.973434 45.391129L13.375641 45.370285L12.777847 45.350418L12.180054 45.331497L11.582260 45.313446L10.984467 45.296265L10.386673 45.279877L9.788864 45.264282L9.191071 45.249420L8.593277 45.235260L7.995483 45.221771L7.397690 45.208923L6.799896 45.196686L6.202103 45.185043L5.604309 45.173950L5.006516 45.163376L4.408722 45.153320L3.810928 45.143738L3.213120 45.134628L2.615326 45.125946C2.416046 45.123825,2.216751 45.123016,2.017532 45.117676C1.818268 45.112335,1.618973 45.102493,1.419739 45.109818C1.219864 45.117172,1.018433 45.141586,0.821945 45.102325C0.619583 45.061890,0.431320 44.955170,0.224152 44.955170Z" style="fill: rgb(30.000305%,30.000305%,100.000000%);stroke: none;"></path>
  <path d="M83.910339 33.000000C83.910339 29.829147,82.650543 26.788544,80.408585 24.546585C78.166626 22.304626,75.126022 21.044830,71.955170 21.044830C68.784317 21.044830,65.743713 22.304626,63.501755 24.546585C61.259796 26.788544,60.000000 29.829147,60.000000 33.000000C60.000000 36.170853,61.259796 39.211456,63.501755 41.453415C65.743713 43.695374,68.784317 44.955170,71.955170 44.955170C75.126022 44.955170,78.166626 43.695374,80.408585 41.453415C82.650543 39.211456,83.910339 36.170853,83.910339 33.000000Z" style="fill: rgb(80.000305%,80.000305%,80.000305%);stroke: none;"></path>
  <path d="M83.910339 33.000000C83.910339 29.829147,82.650543 26.788544,80.408585 24.546585C78.166626 22.304626,75.126022 21.044830,71.955170 21.044830C68.784317 21.044830,65.743713 22.304626,63.501755 24.546585C61.259796 26.788544,60.000000 29.829147,60.000000 33.000000C60.000000 36.170853,61.259796 39.211456,63.501755 41.453415C65.743713 43.695374,68.784317 44.955170,71.955170 44.955170C75.126022 44.955170,78.166626 43.695374,80.408585 41.453415C82.650543 39.211456,83.910339 36.170853,83.910339 33.000000Z" style="stroke:rgb(0.000000%,0.000000%,0.000000%); stroke-width: 1.000000;stroke-linecap: round;stroke-linejoin: round;stroke-miterlimit: 10.000000;fill: none;"></path>
  <path d="M71.955170 21.044830L72.552963 20.970093L73.150757 20.895493L73.748550 20.821075L74.346344 20.746902L74.944138 20.673141L75.541946 20.599792L76.139740 20.527008L76.737534 20.454880L77.335327 20.383408L77.933121 20.312759L78.530914 20.242981L79.128708 20.174072L79.726501 20.106201L80.324295 20.039383L80.922089 19.973679L81.519882 19.909134L82.117691 19.845825L82.715485 19.783768L83.313278 19.723022L83.911072 19.663589L84.508865 19.605499L85.106659 19.548767L85.704453 19.493469L86.302246 19.439636L86.900040 19.387161L87.497833 19.336121L88.095627 19.286545L88.693436 19.238373L89.291229 19.191666L89.889023 19.146423L90.486816 19.102509L91.084610 19.060059L91.682404 19.018997L92.280197 18.979279L92.877991 18.940903L93.475784 18.903885L94.073578 18.868103L94.671371 18.833679L95.269180 18.800476L95.568085 18.784317" style="stroke:rgb(0.000000%,0.000000%,0.000000%); stroke-width: 1.000000;stroke-linecap: round;stroke-linejoin: round;stroke-miterlimit: 10.000000;fill: none;"></path>
  <path d="M88.402512 22.341675L88.856674 22.107941L89.390549 21.834671L89.924942 21.562759L90.459930 21.292175L90.995392 21.022842L91.531448 20.754852L92.068024 20.488144L92.605103 20.222672L93.142700 19.958466L93.680817 19.695480L94.219406 19.433655L94.758530 19.173096L95.298111 18.913635L95.568085 18.784317L95.285751 18.684845L94.720749 18.486755L94.155289 18.289795L93.589294 18.094070L93.022858 17.899506L92.455872 17.706192L91.888397 17.514114L91.320389 17.323273L90.751862 17.133743L90.182770 16.945526L89.613174 16.758560L89.043015 16.572952L88.472275 16.388672L87.985886 16.232788Z" style="stroke:rgb(0.000000%,0.000000%,0.000000%); stroke-width: 1.000000;fill: rgb(0.000000%,0.000000%,0.000000%);"></path>
  <path d="M71.955170 44.955170L72.552963 45.029907L73.150757 45.104507L73.748550 45.178925L74.346344 45.253098L74.944138 45.326859L75.541946 45.400208L76.139740 45.472992L76.737534 45.545120L77.335327 45.616592L77.933121 45.687241L78.530914 45.757019L79.128708 45.825928L79.726501 45.893799L80.324295 45.960617L80.922089 46.026321L81.519882 46.090866L82.117691 46.154175L82.715485 46.216232L83.313278 46.276978L83.911072 46.336411L84.508865 46.394501L85.106659 46.451233L85.704453 46.506531L86.302246 46.560364L86.900040 46.612839L87.497833 46.663879L88.095627 46.713455L88.693436 46.761627L89.291229 46.808334L89.889023 46.853577L90.486816 46.897491L91.084610 46.939941L91.682404 46.981003L92.280197 47.020721L92.877991 47.059097L93.475784 47.096115L94.073578 47.131897L94.671371 47.166321L95.269180 47.199524L95.568085 47.215683" style="stroke:rgb(0.000000%,0.000000%,0.000000%); stroke-width: 1.000000;stroke-linecap: round;stroke-linejoin: round;stroke-miterlimit: 10.000000;fill: none;"></path>
  <path d="M87.985886 49.767212L88.472275 49.611328L89.043015 49.427048L89.613174 49.241440L90.182770 49.054474L90.751862 48.866257L91.320389 48.676727L91.888397 48.485886L92.455872 48.293808L93.022858 48.100494L93.589294 47.905930L94.155289 47.710205L94.720749 47.513245L95.285751 47.315155L95.568085 47.215683L95.298111 47.086365L94.758530 46.826904L94.219406 46.566345L93.680817 46.304520L93.142700 46.041534L92.605103 45.777328L92.068024 45.511856L91.531448 45.245148L90.995392 44.977158L90.459930 44.707825L89.924942 44.437241L89.390549 44.165329L88.856674 43.892059L88.402512 43.658325Z" style="stroke:rgb(0.000000%,0.000000%,0.000000%); stroke-width: 1.000000;fill: rgb(0.000000%,0.000000%,0.000000%);"></path>
  <path d="M71.955170 21.044830L72.552963 20.970093L73.150757 20.895493L73.748550 20.821075L74.346344 20.746902L74.944138 20.673141L75.541946 20.599792L76.139740 20.527008L76.737534 20.454880L77.335327 20.383408L77.933121 20.312759L78.530914 20.242981L79.128708 20.174072L79.726501 20.106201L80.324295 20.039383L80.922089 19.973679L81.519882 19.909134L82.117691 19.845825L82.715485 19.783768L83.313278 19.723022L83.911072 19.663589L84.508865 19.605499L85.106659 19.548767L85.704453 19.493469L86.302246 19.439636L86.900040 19.387161L87.497833 19.336121L88.095627 19.286545L88.693436 19.238373L89.291229 19.191666L89.889023 19.146423L90.486816 19.102509L91.084610 19.060059L91.682404 19.018997L92.280197 18.979279L92.877991 18.940903L93.475784 18.903885L94.073578 18.868103L94.671371 18.833679L95.269180 18.800476L95.866974 18.768478L96.464767 18.737732L97.062561 18.708069L97.660355 18.679535L98.258148 18.652176L98.855942 18.625885L99.453735 18.600677L100.051529 18.576385L100.649323 18.553101L101.247116 18.530777L101.844925 18.509354L102.442719 18.488876L103.040512 18.469269L103.638306 18.450394L104.236099 18.432343L104.833893 18.415161L105.431686 18.398590L106.029480 18.382828L106.627274 18.367706L107.225067 18.353241L107.822861 18.339447L108.420670 18.326263L109.018463 18.313599L109.616257 18.301620L110.214050 18.290115L110.811844 18.279068L111.409637 18.268646L112.007431 18.258530L112.605225 18.249069L113.203018 18.239914L113.800812 18.231155L114.398605 18.222900L114.996414 18.214951L115.594208 18.207428L116.192001 18.200226L116.789795 18.193359L117.387589 18.186737L117.985382 18.180527L118.583176 18.174576L119.180969 18.168869" style="stroke:rgb(0.000000%,0.000000%,0.000000%); stroke-width: 1.000000;stroke-linecap: round;stroke-linejoin: round;stroke-miterlimit: 10.000000;fill: none;"></path>
  <path d="M71.955170 44.955170L72.552963 45.029907L73.150757 45.104507L73.748550 45.178925L74.346344 45.253098L74.944138 45.326859L75.541946 45.400208L76.139740 45.472992L76.737534 45.545120L77.335327 45.616592L77.933121 45.687241L78.530914 45.757019L79.128708 45.825928L79.726501 45.893799L80.324295 45.960617L80.922089 46.026321L81.519882 46.090866L82.117691 46.154175L82.715485 46.216232L83.313278 46.276978L83.911072 46.336411L84.508865 46.394501L85.106659 46.451233L85.704453 46.506531L86.302246 46.560364L86.900040 46.612839L87.497833 46.663879L88.095627 46.713455L88.693436 46.761627L89.291229 46.808334L89.889023 46.853577L90.486816 46.897491L91.084610 46.939941L91.682404 46.981003L92.280197 47.020721L92.877991 47.059097L93.475784 47.096115L94.073578 47.131897L94.671371 47.166321L95.269180 47.199524L95.866974 47.231522L96.464767 47.262268L97.062561 47.291931L97.660355 47.320465L98.258148 47.347824L98.855942 47.374115L99.453735 47.399323L100.051529 47.423615L100.649323 47.446899L101.247116 47.469223L101.844925 47.490646L102.442719 47.511124L103.040512 47.530731L103.638306 47.549606L104.236099 47.567657L104.833893 47.584839L105.431686 47.601410L106.029480 47.617172L106.627274 47.632294L107.225067 47.646759L107.822861 47.660553L108.420670 47.673737L109.018463 47.686401L109.616257 47.698380L110.214050 47.709885L110.811844 47.720932L111.409637 47.731354L112.007431 47.741470L112.605225 47.750931L113.203018 47.760086L113.800812 47.768845L114.398605 47.777100L114.996414 47.785049L115.594208 47.792572L116.192001 47.799774L116.789795 47.806641L117.387589 47.813263L117.985382 47.819473L118.583176 47.825424L119.180969 47.831131" style="stroke:rgb(0.000000%,0.000000%,0.000000%); stroke-width: 1.000000;stroke-linecap: round;stroke-linejoin: round;stroke-miterlimit: 10.000000;fill: none;"></path>
  <path d="M0.224152 31.804413C0.431320 31.804413,0.619583 31.697693,0.821945 31.657257C1.018433 31.617996,1.219864 31.642410,1.419739 31.649765C1.618973 31.657089,1.818268 31.647247,2.017532 31.641907C2.216751 31.636566,2.416046 31.635757,2.615326 31.633636L3.213120 31.624954L3.810928 31.615845L4.408722 31.606262L5.006516 31.596207L5.604309 31.585632L6.202103 31.574539L6.799896 31.562897L7.397690 31.550659L7.995483 31.537811L8.593277 31.524323L9.191071 31.510162L9.788864 31.495300L10.386673 31.479706L10.984467 31.463318L11.582260 31.446136L12.180054 31.428085L12.777847 31.409164L13.375641 31.389297L13.973434 31.368454L14.571228 31.346588L15.169022 31.323654L15.766815 31.299606L16.364609 31.274368L16.962418 31.247910L17.560211 31.220184L18.158005 31.191101L18.755798 31.160614L19.353592 31.128677L19.951385 31.095200L20.549179 31.060135L21.146973 31.023392L21.744766 30.984924L22.342560 30.944626L22.940353 30.902435L23.538162 30.858292L24.135956 30.812073L24.733749 30.763718L25.331543 30.713150L25.929337 30.660248L26.527130 30.604950L27.124924 30.547150L27.722717 30.486740L28.320511 30.423630L28.918304 30.357727L29.516098 30.288925L30.113907 30.217117L30.711700 30.142197L31.309494 30.064056L31.907288 29.982590L32.505081 29.897690L33.102875 29.809250L33.700668 29.717163L34.298462 29.621307L34.896255 29.521576L35.494049 29.417877L36.091843 29.310104L36.689651 29.198135L37.287445 29.081894L37.885239 28.961273L38.483032 28.836166L39.080826 28.706512L39.678619 28.572205L40.276413 28.433182L40.874207 28.289368L41.472000 28.140701L42.069794 27.987122L42.667587 27.828583L43.265396 27.665054L43.863190 27.496521L44.460983 27.322952L45.058777 27.144348L45.656570 26.960709L46.254364 26.772110L46.852158 26.578537L47.449951 26.380051L48.047745 26.176743L48.645538 25.968658L49.243332 25.755951L49.841141 25.538696L50.438934 25.317032L51.036728 25.091156L51.634521 24.861176L52.232315 24.627258L52.830109 24.389694L53.427902 24.148651L54.025696 23.904327L54.623489 23.656982L55.221283 23.406937L55.819077 23.154343L56.416885 22.899628L57.014679 22.642944L57.612473 22.384705L58.210266 22.125153L58.808060 21.864685L59.405853 21.603500L59.704773 21.472778" style="stroke:rgb(0.000000%,0.000000%,0.000000%); stroke-width: 1.000000;stroke-linecap: round;stroke-linejoin: round;stroke-miterlimit: 10.000000;fill: none;"></path>
  <path d="M54.088120 27.169571L54.469727 26.798523L54.929764 26.347046L55.388550 25.892548L55.846191 25.435272L56.302780 24.975479L56.758408 24.513351L57.213211 24.049240L57.667282 23.583344L58.120728 23.115982L58.573700 22.647415L59.026306 22.178024L59.478638 21.707947L59.704773 21.472778L59.378571 21.479156L58.726349 21.491684L58.074371 21.503555L57.422760 21.514572L56.771652 21.524384L56.121140 21.532761L55.471359 21.539322L54.822403 21.543900L54.174438 21.546143L53.527496 21.545898L52.881699 21.542847L52.237183 21.536774L51.704971 21.529312Z" style="stroke:rgb(0.000000%,0.000000%,0.000000%); stroke-width: 1.000000;fill: rgb(0.000000%,0.000000%,0.000000%);"></path>
  <path d="M0.224152 34.195587C0.431320 34.195587,0.619583 34.302307,0.821945 34.342743C1.018433 34.382004,1.219864 34.357590,1.419739 34.350235C1.618973 34.342911,1.818268 34.352753,2.017532 34.358093C2.216751 34.363434,2.416046 34.364243,2.615326 34.366364L3.213120 34.375046L3.810928 34.384155L4.408722 34.393738L5.006516 34.403793L5.604309 34.414368L6.202103 34.425461L6.799896 34.437103L7.397690 34.449341L7.995483 34.462189L8.593277 34.475677L9.191071 34.489838L9.788864 34.504700L10.386673 34.520294L10.984467 34.536682L11.582260 34.553864L12.180054 34.571915L12.777847 34.590836L13.375641 34.610703L13.973434 34.631546L14.571228 34.653412L15.169022 34.676346L15.766815 34.700394L16.364609 34.725632L16.962418 34.752090L17.560211 34.779816L18.158005 34.808899L18.755798 34.839386L19.353592 34.871323L19.951385 34.904800L20.549179 34.939865L21.146973 34.976608L21.744766 35.015076L22.342560 35.055374L22.940353 35.097565L23.538162 35.141708L24.135956 35.187927L24.733749 35.236282L25.331543 35.286850L25.929337 35.339752L26.527130 35.395050L27.124924 35.452850L27.722717 35.513260L28.320511 35.576370L28.918304 35.642273L29.516098 35.711075L30.113907 35.782883L30.711700 35.857803L31.309494 35.935944L31.907288 36.017410L32.505081 36.102310L33.102875 36.190750L33.700668 36.282837L34.298462 36.378693L34.896255 36.478424L35.494049 36.582123L36.091843 36.689896L36.689651 36.801865L37.287445 36.918106L37.885239 37.038727L38.483032 37.163834L39.080826 37.293488L39.678619 37.427795L40.276413 37.566818L40.874207 37.710632L41.472000 37.859299L42.069794 38.012878L42.667587 38.171417L43.265396 38.334946L43.863190 38.503479L44.460983 38.677048L45.058777 38.855652L45.656570 39.039291L46.254364 39.227890L46.852158 39.421463L47.449951 39.619949L48.047745 39.823257L48.645538 40.031342L49.243332 40.244049L49.841141 40.461304L50.438934 40.682968L51.036728 40.908844L51.634521 41.138824L52.232315 41.372742L52.830109 41.610306L53.427902 41.851349L54.025696 42.095673L54.623489 42.343018L55.221283 42.593063L55.819077 42.845657L56.416885 43.100372L57.014679 43.357056L57.612473 43.615295L58.210266 43.874847L58.808060 44.135315L59.405853 44.396500L59.704773 44.527222" style="stroke:rgb(0.000000%,0.000000%,0.000000%); stroke-width: 1.000000;stroke-linecap: round;stroke-linejoin: round;stroke-miterlimit: 10.000000;fill: none;"></path>
  <path d="M51.704971 44.470688L52.237183 44.463226L52.881699 44.457153L53.527496 44.454102L54.174438 44.453857L54.822403 44.456100L55.471359 44.460678L56.121140 44.467239L56.771652 44.475616L57.422760 44.485428L58.074371 44.496445L58.726349 44.508316L59.378571 44.520844L59.704773 44.527222L59.478638 44.292053L59.026306 43.821976L58.573700 43.352585L58.120728 42.884018L57.667282 42.416656L57.213211 41.950760L56.758408 41.486649L56.302780 41.024521L55.846191 40.564728L55.388550 40.107452L54.929764 39.652954L54.469727 39.201477L54.088120 38.830429Z" style="stroke:rgb(0.000000%,0.000000%,0.000000%); stroke-width: 1.000000;fill: rgb(0.000000%,0.000000%,0.000000%);"></path>
  <path d="M0.224152 31.804413C0.431320 31.804413,0.619583 31.697693,0.821945 31.657257C1.018433 31.617996,1.219864 31.642410,1.419739 31.649765C1.618973 31.657089,1.818268 31.647247,2.017532 31.641907C2.216751 31.636566,2.416046 31.635757,2.615326 31.633636L3.213120 31.624954L3.810928 31.615845L4.408722 31.606262L5.006516 31.596207L5.604309 31.585632L6.202103 31.574539L6.799896 31.562897L7.397690 31.550659L7.995483 31.537811L8.593277 31.524323L9.191071 31.510162L9.788864 31.495300L10.386673 31.479706L10.984467 31.463318L11.582260 31.446136L12.180054 31.428085L12.777847 31.409164L13.375641 31.389297L13.973434 31.368454L14.571228 31.346588L15.169022 31.323654L15.766815 31.299606L16.364609 31.274368L16.962418 31.247910L17.560211 31.220184L18.158005 31.191101L18.755798 31.160614L19.353592 31.128677L19.951385 31.095200L20.549179 31.060135L21.146973 31.023392L21.744766 30.984924L22.342560 30.944626L22.940353 30.902435L23.538162 30.858292L24.135956 30.812073L24.733749 30.763718L25.331543 30.713150L25.929337 30.660248L26.527130 30.604950L27.124924 30.547150L27.722717 30.486740L28.320511 30.423630L28.918304 30.357727L29.516098 30.288925L30.113907 30.217117L30.711700 30.142197L31.309494 30.064056L31.907288 29.982590L32.505081 29.897690L33.102875 29.809250L33.700668 29.717163L34.298462 29.621307L34.896255 29.521576L35.494049 29.417877L36.091843 29.310104L36.689651 29.198135L37.287445 29.081894L37.885239 28.961273L38.483032 28.836166L39.080826 28.706512L39.678619 28.572205L40.276413 28.433182L40.874207 28.289368L41.472000 28.140701L42.069794 27.987122L42.667587 27.828583L43.265396 27.665054L43.863190 27.496521L44.460983 27.322952L45.058777 27.144348L45.656570 26.960709L46.254364 26.772110L46.852158 26.578537L47.449951 26.380051L48.047745 26.176743L48.645538 25.968658L49.243332 25.755951L49.841141 25.538696L50.438934 25.317032L51.036728 25.091156L51.634521 24.861176L52.232315 24.627258L52.830109 24.389694L53.427902 24.148651L54.025696 23.904327L54.623489 23.656982L55.221283 23.406937L55.819077 23.154343L56.416885 22.899628L57.014679 22.642944L57.612473 22.384705L58.210266 22.125153L58.808060 21.864685L59.405853 21.603500L60.003647 21.342041L60.601440 21.080505L61.199234 20.819412L61.797028 20.558853L62.394821 20.299362L62.992630 20.041138L63.590424 19.784470L64.188217 19.529770L64.786011 19.277328L65.383804 19.027267L65.981598 18.779907L66.579391 18.535645L67.177185 18.294556L67.774979 18.057114L68.372772 17.823288L68.970566 17.593323L69.568375 17.367523L70.166168 17.145889L70.763962 16.928635L71.361755 16.715988L71.959549 16.507935L72.557343 16.304764L73.155136 16.106354L73.752930 15.912766L74.350723 15.724152L74.948517 15.540665L75.546310 15.362213L76.144119 15.188660L76.741913 15.020050L77.339706 14.856766L77.937500 14.698196L78.535294 14.544662L79.133087 14.396088L79.730881 14.252350L80.328674 14.113297L80.926468 13.978973L81.524261 13.849426L82.122055 13.724411L82.719864 13.603928L83.317657 13.487717L83.915451 13.375702L84.513245 13.268066L85.111038 13.164490L85.708832 13.064636L86.306625 12.968857L86.904419 12.876816L87.502213 12.788345L88.100006 12.703583L88.697800 12.622070L89.295609 12.543930L89.893402 12.469238L90.491196 12.397263L91.088989 12.328629L91.686783 12.262833L92.284576 12.199692L92.882370 12.139236L93.480164 12.081528L94.077957 12.026337L94.675751 11.973419L95.273544 11.922806L95.871353 11.874542L96.469147 11.828384L97.066940 11.784332L97.664734 11.742157L98.262527 11.701859L98.860321 11.663467L99.458115 11.626709L100.055908 11.591614L100.653702 11.558182L101.251495 11.526154L101.849289 11.495804L102.447098 11.466583L103.044891 11.439102L103.642685 11.412445L104.240479 11.387238L104.838272 11.363190L105.436066 11.340317L106.033859 11.318298L106.631653 11.297775L107.229446 11.277817L107.827240 11.258743L108.425034 11.240875L109.022842 11.223587L109.620636 11.207199L110.218430 11.191727L110.816223 11.176834L111.414017 11.162552L112.011810 11.149185L112.609604 11.136414L113.207397 11.123947L113.805191 11.112396L114.402985 11.101456L115.000778 11.090836L115.598587 11.080811L116.196381 11.071091L116.794174 11.061996L117.391968 11.053528L117.989761 11.045044L118.587555 11.037186L119.185349 11.029938" style="stroke:rgb(0.000000%,0.000000%,0.000000%); stroke-width: 1.000000;stroke-linecap: round;stroke-linejoin: round;stroke-miterlimit: 10.000000;fill: none;"></path>
  <path d="M0.224152 34.195587C0.431320 34.195587,0.619583 34.302307,0.821945 34.342743C1.018433 34.382004,1.219864 34.357590,1.419739 34.350235C1.618973 34.342911,1.818268 34.352753,2.017532 34.358093C2.216751 34.363434,2.416046 34.364243,2.615326 34.366364L3.213120 34.375046L3.810928 34.384155L4.408722 34.393738L5.006516 34.403793L5.604309 34.414368L6.202103 34.425461L6.799896 34.437103L7.397690 34.449341L7.995483 34.462189L8.593277 34.475677L9.191071 34.489838L9.788864 34.504700L10.386673 34.520294L10.984467 34.536682L11.582260 34.553864L12.180054 34.571915L12.777847 34.590836L13.375641 34.610703L13.973434 34.631546L14.571228 34.653412L15.169022 34.676346L15.766815 34.700394L16.364609 34.725632L16.962418 34.752090L17.560211 34.779816L18.158005 34.808899L18.755798 34.839386L19.353592 34.871323L19.951385 34.904800L20.549179 34.939865L21.146973 34.976608L21.744766 35.015076L22.342560 35.055374L22.940353 35.097565L23.538162 35.141708L24.135956 35.187927L24.733749 35.236282L25.331543 35.286850L25.929337 35.339752L26.527130 35.395050L27.124924 35.452850L27.722717 35.513260L28.320511 35.576370L28.918304 35.642273L29.516098 35.711075L30.113907 35.782883L30.711700 35.857803L31.309494 35.935944L31.907288 36.017410L32.505081 36.102310L33.102875 36.190750L33.700668 36.282837L34.298462 36.378693L34.896255 36.478424L35.494049 36.582123L36.091843 36.689896L36.689651 36.801865L37.287445 36.918106L37.885239 37.038727L38.483032 37.163834L39.080826 37.293488L39.678619 37.427795L40.276413 37.566818L40.874207 37.710632L41.472000 37.859299L42.069794 38.012878L42.667587 38.171417L43.265396 38.334946L43.863190 38.503479L44.460983 38.677048L45.058777 38.855652L45.656570 39.039291L46.254364 39.227890L46.852158 39.421463L47.449951 39.619949L48.047745 39.823257L48.645538 40.031342L49.243332 40.244049L49.841141 40.461304L50.438934 40.682968L51.036728 40.908844L51.634521 41.138824L52.232315 41.372742L52.830109 41.610306L53.427902 41.851349L54.025696 42.095673L54.623489 42.343018L55.221283 42.593063L55.819077 42.845657L56.416885 43.100372L57.014679 43.357056L57.612473 43.615295L58.210266 43.874847L58.808060 44.135315L59.405853 44.396500L60.003647 44.657959L60.601440 44.919495L61.199234 45.180588L61.797028 45.441147L62.394821 45.700638L62.992630 45.958862L63.590424 46.215530L64.188217 46.470230L64.786011 46.722672L65.383804 46.972733L65.981598 47.220093L66.579391 47.464355L67.177185 47.705444L67.774979 47.942886L68.372772 48.176712L68.970566 48.406677L69.568375 48.632477L70.166168 48.854111L70.763962 49.071365L71.361755 49.284012L71.959549 49.492065L72.557343 49.695236L73.155136 49.893646L73.752930 50.087234L74.350723 50.275848L74.948517 50.459335L75.546310 50.637787L76.144119 50.811340L76.741913 50.979950L77.339706 51.143234L77.937500 51.301804L78.535294 51.455338L79.133087 51.603912L79.730881 51.747650L80.328674 51.886703L80.926468 52.021027L81.524261 52.150574L82.122055 52.275589L82.719864 52.396072L83.317657 52.512283L83.915451 52.624298L84.513245 52.731934L85.111038 52.835510L85.708832 52.935364L86.306625 53.031143L86.904419 53.123184L87.502213 53.211655L88.100006 53.296417L88.697800 53.377930L89.295609 53.456070L89.893402 53.530762L90.491196 53.602737L91.088989 53.671371L91.686783 53.737167L92.284576 53.800308L92.882370 53.860764L93.480164 53.918472L94.077957 53.973663L94.675751 54.026581L95.273544 54.077194L95.871353 54.125458L96.469147 54.171616L97.066940 54.215668L97.664734 54.257843L98.262527 54.298141L98.860321 54.336533L99.458115 54.373291L100.055908 54.408386L100.653702 54.441818L101.251495 54.473846L101.849289 54.504196L102.447098 54.533417L103.044891 54.560898L103.642685 54.587555L104.240479 54.612762L104.838272 54.636810L105.436066 54.659683L106.033859 54.681702L106.631653 54.702225L107.229446 54.722183L107.827240 54.741257L108.425034 54.759125L109.022842 54.776413L109.620636 54.792801L110.218430 54.808273L110.816223 54.823166L111.414017 54.837448L112.011810 54.850815L112.609604 54.863586L113.207397 54.876053L113.805191 54.887604L114.402985 54.898544L115.000778 54.909164L115.598587 54.919189L116.196381 54.928909L116.794174 54.938004L117.391968 54.946472L117.989761 54.954956L118.587555 54.962814L119.185349 54.970062" style="stroke:rgb(0.000000%,0.000000%,0.000000%); stroke-width: 1.000000;stroke-linecap: round;stroke-linejoin: round;stroke-miterlimit: 10.000000;fill: none;"></path>
  <path d="M0.224152 27.022415C0.432480 27.022415,0.619125 26.908051,0.821945 26.864746C1.018036 26.822876,1.219757 26.848892,1.419739 26.856720C1.618958 26.864517,1.818268 26.853989,2.017532 26.848297C2.216736 26.842606,2.416046 26.841721,2.615326 26.839447L3.213120 26.830139L3.810928 26.820374L4.408722 26.810104L5.006516 26.799332L5.604309 26.788010L6.202103 26.776123L6.799896 26.763641L7.397690 26.750534L7.995483 26.736771L8.593277 26.722321L9.191071 26.707153L9.788864 26.691223L10.386673 26.674515L10.984467 26.656967L11.582260 26.638535L12.180054 26.619217L12.777847 26.598923L13.375641 26.577652L13.973434 26.555313L14.571228 26.531891L15.169022 26.507324L15.766815 26.481537L16.364609 26.454514L16.962418 26.426163L17.560211 26.396454L18.158005 26.365295L18.755798 26.332642L19.353592 26.298416L19.951385 26.262543L20.549179 26.224976L21.146973 26.185608L21.744766 26.144379L22.342560 26.101212L22.940353 26.056015L23.538162 26.008713L24.135956 25.959198L24.733749 25.907394L25.331543 25.853195L25.929337 25.796524L26.527130 25.737274L27.124924 25.675339L27.722717 25.610626L28.320511 25.543015L28.918304 25.472397L29.516098 25.398682L30.113907 25.321747L30.711700 25.241470L31.309494 25.157745L31.907288 25.070465L32.505081 24.979507L33.102875 24.884750L33.700668 24.786072L34.298462 24.683365L34.896255 24.576523L35.494049 24.465408L36.091843 24.349930L36.689651 24.229980L37.287445 24.105438L37.885239 23.976196L38.483032 23.842163L39.080826 23.703232L39.678619 23.559341L40.276413 23.410385L40.874207 23.256287L41.472000 23.097015L42.069794 22.932465L42.667587 22.762604L43.265396 22.587402L43.863190 22.406815L44.460983 22.220856L45.058777 22.029495L45.656570 21.832748L46.254364 21.630676L46.852158 21.423264L47.449951 21.210602L48.047745 20.992767L48.645538 20.769836L49.243332 20.541916L49.841141 20.309143L50.438934 20.071655L51.036728 19.829651L51.634521 19.583237L52.232315 19.332626L52.830109 19.078079L53.427902 18.819824L54.025696 18.558044L54.623489 18.293030L55.221283 18.025116L55.819077 17.754486L56.416885 17.481567L57.014679 17.206558L57.612473 16.929871L58.210266 16.651794L58.808060 16.372726L59.405853 16.092865L59.704773 15.952805" style="stroke:rgb(0.000000%,0.000000%,0.000000%); stroke-width: 1.000000;stroke-linecap: round;stroke-linejoin: round;stroke-miterlimit: 10.000000;fill: none;"></path>
  <path d="M54.235779 21.791504L54.549469 21.471039L55.002914 21.003662L55.455017 20.533035L55.905899 20.059448L56.355652 19.583145L56.804367 19.104340L57.252213 18.623428L57.699265 18.140594L58.145660 17.656189L58.591537 17.170517L59.037033 16.683929L59.482208 16.196594L59.704773 15.952805L59.375000 15.967804L58.715622 15.997589L58.056534 16.026657L57.397827 16.054779L56.739670 16.081635L56.082138 16.106949L55.425400 16.130310L54.769531 16.151566L54.114731 16.170319L53.461029 16.186386L52.808548 16.199463L52.157440 16.209290L51.709015 16.214081Z" style="stroke:rgb(0.000000%,0.000000%,0.000000%); stroke-width: 1.000000;fill: rgb(0.000000%,0.000000%,0.000000%);"></path>
  <path d="M0.224152 38.977585C0.432480 38.977585,0.619125 39.091949,0.821945 39.135254C1.018036 39.177124,1.219757 39.151108,1.419739 39.143280C1.618958 39.135483,1.818268 39.146011,2.017532 39.151703C2.216736 39.157394,2.416046 39.158279,2.615326 39.160553L3.213120 39.169861L3.810928 39.179626L4.408722 39.189896L5.006516 39.200668L5.604309 39.211990L6.202103 39.223877L6.799896 39.236359L7.397690 39.249466L7.995483 39.263229L8.593277 39.277679L9.191071 39.292847L9.788864 39.308777L10.386673 39.325485L10.984467 39.343033L11.582260 39.361465L12.180054 39.380783L12.777847 39.401077L13.375641 39.422348L13.973434 39.444687L14.571228 39.468109L15.169022 39.492676L15.766815 39.518463L16.364609 39.545486L16.962418 39.573837L17.560211 39.603546L18.158005 39.634705L18.755798 39.667358L19.353592 39.701584L19.951385 39.737457L20.549179 39.775024L21.146973 39.814392L21.744766 39.855621L22.342560 39.898788L22.940353 39.943985L23.538162 39.991287L24.135956 40.040802L24.733749 40.092606L25.331543 40.146805L25.929337 40.203476L26.527130 40.262726L27.124924 40.324661L27.722717 40.389374L28.320511 40.456985L28.918304 40.527603L29.516098 40.601318L30.113907 40.678253L30.711700 40.758530L31.309494 40.842255L31.907288 40.929535L32.505081 41.020493L33.102875 41.115250L33.700668 41.213928L34.298462 41.316635L34.896255 41.423477L35.494049 41.534592L36.091843 41.650070L36.689651 41.770020L37.287445 41.894562L37.885239 42.023804L38.483032 42.157837L39.080826 42.296768L39.678619 42.440659L40.276413 42.589615L40.874207 42.743713L41.472000 42.902985L42.069794 43.067535L42.667587 43.237396L43.265396 43.412598L43.863190 43.593185L44.460983 43.779144L45.058777 43.970505L45.656570 44.167252L46.254364 44.369324L46.852158 44.576736L47.449951 44.789398L48.047745 45.007233L48.645538 45.230164L49.243332 45.458084L49.841141 45.690857L50.438934 45.928345L51.036728 46.170349L51.634521 46.416763L52.232315 46.667374L52.830109 46.921921L53.427902 47.180176L54.025696 47.441956L54.623489 47.706970L55.221283 47.974884L55.819077 48.245514L56.416885 48.518433L57.014679 48.793442L57.612473 49.070129L58.210266 49.348206L58.808060 49.627274L59.405853 49.907135L59.704773 50.047195" style="stroke:rgb(0.000000%,0.000000%,0.000000%); stroke-width: 1.000000;stroke-linecap: round;stroke-linejoin: round;stroke-miterlimit: 10.000000;fill: none;"></path>
  <path d="M51.709030 49.785904L52.157440 49.790710L52.808548 49.800537L53.461029 49.813614L54.114731 49.829681L54.769531 49.848434L55.425400 49.869690L56.082138 49.893051L56.739670 49.918365L57.397827 49.945221L58.056534 49.973343L58.715622 50.002411L59.375000 50.032196L59.704773 50.047195L59.482208 49.803406L59.037033 49.316071L58.591537 48.829483L58.145660 48.343811L57.699265 47.859406L57.252213 47.376572L56.804367 46.895660L56.355652 46.416855L55.905899 45.940552L55.455017 45.466965L55.002914 44.996338L54.549469 44.528961L54.235794 44.208511Z" style="stroke:rgb(0.000000%,0.000000%,0.000000%); stroke-width: 1.000000;fill: rgb(0.000000%,0.000000%,0.000000%);"></path>
  <path d="M0.224152 27.022415C0.432480 27.022415,0.619125 26.908051,0.821945 26.864746C1.018036 26.822876,1.219757 26.848892,1.419739 26.856720C1.618958 26.864517,1.818268 26.853989,2.017532 26.848297C2.216736 26.842606,2.416046 26.841721,2.615326 26.839447L3.213120 26.830139L3.810928 26.820374L4.408722 26.810104L5.006516 26.799332L5.604309 26.788010L6.202103 26.776123L6.799896 26.763641L7.397690 26.750534L7.995483 26.736771L8.593277 26.722321L9.191071 26.707153L9.788864 26.691223L10.386673 26.674515L10.984467 26.656967L11.582260 26.638535L12.180054 26.619217L12.777847 26.598923L13.375641 26.577652L13.973434 26.555313L14.571228 26.531891L15.169022 26.507324L15.766815 26.481537L16.364609 26.454514L16.962418 26.426163L17.560211 26.396454L18.158005 26.365295L18.755798 26.332642L19.353592 26.298416L19.951385 26.262543L20.549179 26.224976L21.146973 26.185608L21.744766 26.144379L22.342560 26.101212L22.940353 26.056015L23.538162 26.008713L24.135956 25.959198L24.733749 25.907394L25.331543 25.853195L25.929337 25.796524L26.527130 25.737274L27.124924 25.675339L27.722717 25.610626L28.320511 25.543015L28.918304 25.472397L29.516098 25.398682L30.113907 25.321747L30.711700 25.241470L31.309494 25.157745L31.907288 25.070465L32.505081 24.979507L33.102875 24.884750L33.700668 24.786072L34.298462 24.683365L34.896255 24.576523L35.494049 24.465408L36.091843 24.349930L36.689651 24.229980L37.287445 24.105438L37.885239 23.976196L38.483032 23.842163L39.080826 23.703232L39.678619 23.559341L40.276413 23.410385L40.874207 23.256287L41.472000 23.097015L42.069794 22.932465L42.667587 22.762604L43.265396 22.587402L43.863190 22.406815L44.460983 22.220856L45.058777 22.029495L45.656570 21.832748L46.254364 21.630676L46.852158 21.423264L47.449951 21.210602L48.047745 20.992767L48.645538 20.769836L49.243332 20.541916L49.841141 20.309143L50.438934 20.071655L51.036728 19.829651L51.634521 19.583237L52.232315 19.332626L52.830109 19.078079L53.427902 18.819824L54.025696 18.558044L54.623489 18.293030L55.221283 18.025116L55.819077 17.754486L56.416885 17.481567L57.014679 17.206558L57.612473 16.929871L58.210266 16.651794L58.808060 16.372726L59.405853 16.092865L60.003647 15.812729L60.601440 15.532532L61.199234 15.252777L61.797028 14.973602L62.394821 14.695572L62.992630 14.418915L63.590424 14.143906L64.188217 13.871017L64.786011 13.600540L65.383804 13.332626L65.981598 13.067596L66.579391 12.805878L67.177185 12.547577L67.774979 12.293167L68.372772 12.042648L68.970566 11.796249L69.568375 11.554321L70.166168 11.316849L70.763962 11.084091L71.361755 10.856262L71.959549 10.633347L72.557343 10.415649L73.155136 10.203079L73.752930 9.995667L74.350723 9.793579L74.948517 9.596985L75.546310 9.405777L76.144119 9.219833L76.741913 9.039169L77.339706 8.864243L77.937500 8.694336L78.535294 8.529831L79.133087 8.370636L79.730881 8.216629L80.328674 8.067657L80.926468 7.923737L81.524261 7.784927L82.122055 7.651001L82.719864 7.521912L83.317657 7.397385L83.915451 7.277374L84.513245 7.162048L85.111038 7.051086L85.708832 6.944092L86.306625 6.841476L86.904419 6.742859L87.502213 6.648071L88.100006 6.557251L88.697800 6.469925L89.295609 6.386200L89.893402 6.306168L90.491196 6.229050L91.088989 6.155502L91.686783 6.085022L92.284576 6.017365L92.882370 5.952591L93.480164 5.890762L94.077957 5.831635L94.675751 5.774933L95.273544 5.720703L95.871353 5.668991L96.469147 5.619537L97.066940 5.572342L97.664734 5.527145L98.262527 5.483978L98.860321 5.442841L99.458115 5.403458L100.055908 5.365860L100.653702 5.330048L101.251495 5.295715L101.849289 5.263214L102.447098 5.231903L103.044891 5.202454L103.642685 5.173889L104.240479 5.146881L104.838272 5.121124L105.436066 5.096603L106.033859 5.073029L106.631653 5.051025L107.229446 5.029648L107.827240 5.009216L108.425034 4.990067L109.022842 4.971542L109.620636 4.953995L110.218430 4.937393L110.816223 4.921448L111.414017 4.906143L112.011810 4.891815L112.609604 4.878143L113.207397 4.864777L113.805191 4.852417L114.402985 4.840698L115.000778 4.829300L115.598587 4.818573L116.196381 4.808151L116.794174 4.798416L117.391968 4.789337L117.989761 4.780243L118.587555 4.771820L119.185349 4.764069" style="stroke:rgb(0.000000%,0.000000%,0.000000%); stroke-width: 1.000000;stroke-linecap: round;stroke-linejoin: round;stroke-miterlimit: 10.000000;fill: none;"></path>
  <path d="M0.224152 38.977585C0.432480 38.977585,0.619125 39.091949,0.821945 39.135254C1.018036 39.177124,1.219757 39.151108,1.419739 39.143280C1.618958 39.135483,1.818268 39.146011,2.017532 39.151703C2.216736 39.157394,2.416046 39.158279,2.615326 39.160553L3.213120 39.169861L3.810928 39.179626L4.408722 39.189896L5.006516 39.200668L5.604309 39.211990L6.202103 39.223877L6.799896 39.236359L7.397690 39.249466L7.995483 39.263229L8.593277 39.277679L9.191071 39.292847L9.788864 39.308777L10.386673 39.325485L10.984467 39.343033L11.582260 39.361465L12.180054 39.380783L12.777847 39.401077L13.375641 39.422348L13.973434 39.444687L14.571228 39.468109L15.169022 39.492676L15.766815 39.518463L16.364609 39.545486L16.962418 39.573837L17.560211 39.603546L18.158005 39.634705L18.755798 39.667358L19.353592 39.701584L19.951385 39.737457L20.549179 39.775024L21.146973 39.814392L21.744766 39.855621L22.342560 39.898788L22.940353 39.943985L23.538162 39.991287L24.135956 40.040802L24.733749 40.092606L25.331543 40.146805L25.929337 40.203476L26.527130 40.262726L27.124924 40.324661L27.722717 40.389374L28.320511 40.456985L28.918304 40.527603L29.516098 40.601318L30.113907 40.678253L30.711700 40.758530L31.309494 40.842255L31.907288 40.929535L32.505081 41.020493L33.102875 41.115250L33.700668 41.213928L34.298462 41.316635L34.896255 41.423477L35.494049 41.534592L36.091843 41.650070L36.689651 41.770020L37.287445 41.894562L37.885239 42.023804L38.483032 42.157837L39.080826 42.296768L39.678619 42.440659L40.276413 42.589615L40.874207 42.743713L41.472000 42.902985L42.069794 43.067535L42.667587 43.237396L43.265396 43.412598L43.863190 43.593185L44.460983 43.779144L45.058777 43.970505L45.656570 44.167252L46.254364 44.369324L46.852158 44.576736L47.449951 44.789398L48.047745 45.007233L48.645538 45.230164L49.243332 45.458084L49.841141 45.690857L50.438934 45.928345L51.036728 46.170349L51.634521 46.416763L52.232315 46.667374L52.830109 46.921921L53.427902 47.180176L54.025696 47.441956L54.623489 47.706970L55.221283 47.974884L55.819077 48.245514L56.416885 48.518433L57.014679 48.793442L57.612473 49.070129L58.210266 49.348206L58.808060 49.627274L59.405853 49.907135L60.003647 50.187271L60.601440 50.467468L61.199234 50.747223L61.797028 51.026398L62.394821 51.304428L62.992630 51.581085L63.590424 51.856094L64.188217 52.128983L64.786011 52.399460L65.383804 52.667374L65.981598 52.932404L66.579391 53.194122L67.177185 53.452423L67.774979 53.706833L68.372772 53.957352L68.970566 54.203751L69.568375 54.445679L70.166168 54.683151L70.763962 54.915909L71.361755 55.143738L71.959549 55.366653L72.557343 55.584351L73.155136 55.796921L73.752930 56.004333L74.350723 56.206421L74.948517 56.403015L75.546310 56.594223L76.144119 56.780167L76.741913 56.960831L77.339706 57.135757L77.937500 57.305664L78.535294 57.470169L79.133087 57.629364L79.730881 57.783371L80.328674 57.932343L80.926468 58.076263L81.524261 58.215073L82.122055 58.348999L82.719864 58.478088L83.317657 58.602615L83.915451 58.722626L84.513245 58.837952L85.111038 58.948914L85.708832 59.055908L86.306625 59.158524L86.904419 59.257141L87.502213 59.351929L88.100006 59.442749L88.697800 59.530075L89.295609 59.613800L89.893402 59.693832L90.491196 59.770950L91.088989 59.844498L91.686783 59.914978L92.284576 59.982635L92.882370 60.047409L93.480164 60.109238L94.077957 60.168365L94.675751 60.225067L95.273544 60.279297L95.871353 60.331009L96.469147 60.380463L97.066940 60.427658L97.664734 60.472855L98.262527 60.516022L98.860321 60.557159L99.458115 60.596542L100.055908 60.634140L100.653702 60.669952L101.251495 60.704285L101.849289 60.736786L102.447098 60.768097L103.044891 60.797546L103.642685 60.826111L104.240479 60.853119L104.838272 60.878876L105.436066 60.903397L106.033859 60.926971L106.631653 60.948975L107.229446 60.970352L107.827240 60.990784L108.425034 61.009933L109.022842 61.028458L109.620636 61.046005L110.218430 61.062607L110.816223 61.078552L111.414017 61.093857L112.011810 61.108185L112.609604 61.121857L113.207397 61.135223L113.805191 61.147583L114.402985 61.159302L115.000778 61.170700L115.598587 61.181427L116.196381 61.191849L116.794174 61.201584L117.391968 61.210663L117.989761 61.219757L118.587555 61.228180L119.185349 61.235931" style="stroke:rgb(0.000000%,0.000000%,0.000000%); stroke-width: 1.000000;stroke-linecap: round;stroke-linejoin: round;stroke-miterlimit: 10.000000;fill: none;"></path>
  <path d="M0.224152 21.044830C0.431320 21.044830,0.619583 20.938110,0.821945 20.897675C1.018433 20.858414,1.219864 20.882828,1.419739 20.890182C1.618973 20.897507,1.818268 20.887665,2.017532 20.882324C2.216751 20.876984,2.416046 20.876175,2.615326 20.874054L3.213120 20.865372L3.810928 20.856262L4.408722 20.846680L5.006516 20.836624L5.604309 20.826050L6.202103 20.814957L6.799896 20.803314L7.397690 20.791077L7.995483 20.778229L8.593277 20.764740L9.191071 20.750580L9.788864 20.735718L10.386673 20.720123L10.984467 20.703735L11.582260 20.686554L12.180054 20.668503L12.777847 20.649582L13.375641 20.629715L13.973434 20.608871L14.571228 20.587006L15.169022 20.564072L15.766815 20.540024L16.364609 20.514786L16.962418 20.488327L17.560211 20.460602L18.158005 20.431519L18.755798 20.401031L19.353592 20.369095L19.951385 20.335617L20.549179 20.300552L21.146973 20.263809L21.744766 20.225342L22.342560 20.185043L22.940353 20.142853L23.538162 20.098709L24.135956 20.052490L24.733749 20.004135L25.331543 19.953568L25.929337 19.900665L26.527130 19.845367L27.124924 19.787567L27.722717 19.727158L28.320511 19.664047L28.918304 19.598145L29.516098 19.529343L30.113907 19.457535L30.711700 19.382614L31.309494 19.304474L31.907288 19.223007L32.505081 19.138107L33.102875 19.049667L33.700668 18.957581L34.298462 18.861725L34.896255 18.761993L35.494049 18.658295L36.091843 18.550522L36.689651 18.438553L37.287445 18.322311L37.885239 18.201691L38.483032 18.076584L39.080826 17.946930L39.678619 17.812622L40.276413 17.673599L40.874207 17.529785L41.472000 17.381119L42.069794 17.227539L42.667587 17.069000L43.265396 16.905472L43.863190 16.736938L44.460983 16.563370L45.058777 16.384766L45.656570 16.201126L46.254364 16.012527L46.852158 15.818954L47.449951 15.620468L48.047745 15.417160L48.645538 15.209076L49.243332 14.996368L49.841141 14.779114L50.438934 14.557449L51.036728 14.331573L51.634521 14.101593L52.232315 13.867676L52.830109 13.630112L53.427902 13.389069L54.025696 13.144745L54.623489 12.897400L55.221283 12.647354L55.819077 12.394760L56.416885 12.140045L57.014679 11.883362L57.612473 11.625122L58.210266 11.365570L58.808060 11.105103L59.405853 10.843918L59.704773 10.713196" style="stroke:rgb(0.000000%,0.000000%,0.000000%); stroke-width: 1.000000;stroke-linecap: round;stroke-linejoin: round;stroke-miterlimit: 10.000000;fill: none;"></path>
  <path d="M54.088120 16.409988L54.469727 16.038940L54.929764 15.587463L55.388550 15.132965L55.846191 14.675690L56.302780 14.215897L56.758408 13.753769L57.213211 13.289658L57.667282 12.823761L58.120728 12.356400L58.573700 11.887833L59.026306 11.418442L59.478638 10.948364L59.704773 10.713196L59.378571 10.719574L58.726349 10.732101L58.074371 10.743973L57.422760 10.754990L56.771652 10.764801L56.121140 10.773178L55.471359 10.779739L54.822403 10.784317L54.174438 10.786560L53.527496 10.786316L52.881699 10.783264L52.237183 10.777191L51.704971 10.769730Z" style="stroke:rgb(0.000000%,0.000000%,0.000000%); stroke-width: 1.000000;fill: rgb(0.000000%,0.000000%,0.000000%);"></path>
  <path d="M0.224152 44.955170C0.431320 44.955170,0.619583 45.061890,0.821945 45.102325C1.018433 45.141586,1.219864 45.117172,1.419739 45.109818C1.618973 45.102493,1.818268 45.112335,2.017532 45.117676C2.216751 45.123016,2.416046 45.123825,2.615326 45.125946L3.213120 45.134628L3.810928 45.143738L4.408722 45.153320L5.006516 45.163376L5.604309 45.173950L6.202103 45.185043L6.799896 45.196686L7.397690 45.208923L7.995483 45.221771L8.593277 45.235260L9.191071 45.249420L9.788864 45.264282L10.386673 45.279877L10.984467 45.296265L11.582260 45.313446L12.180054 45.331497L12.777847 45.350418L13.375641 45.370285L13.973434 45.391129L14.571228 45.412994L15.169022 45.435928L15.766815 45.459976L16.364609 45.485214L16.962418 45.511673L17.560211 45.539398L18.158005 45.568481L18.755798 45.598969L19.353592 45.630905L19.951385 45.664383L20.549179 45.699448L21.146973 45.736191L21.744766 45.774658L22.342560 45.814957L22.940353 45.857147L23.538162 45.901291L24.135956 45.947510L24.733749 45.995865L25.331543 46.046432L25.929337 46.099335L26.527130 46.154633L27.124924 46.212433L27.722717 46.272842L28.320511 46.335953L28.918304 46.401855L29.516098 46.470657L30.113907 46.542465L30.711700 46.617386L31.309494 46.695526L31.907288 46.776993L32.505081 46.861893L33.102875 46.950333L33.700668 47.042419L34.298462 47.138275L34.896255 47.238007L35.494049 47.341705L36.091843 47.449478L36.689651 47.561447L37.287445 47.677689L37.885239 47.798309L38.483032 47.923416L39.080826 48.053070L39.678619 48.187378L40.276413 48.326401L40.874207 48.470215L41.472000 48.618881L42.069794 48.772461L42.667587 48.931000L43.265396 49.094528L43.863190 49.263062L44.460983 49.436630L45.058777 49.615234L45.656570 49.798874L46.254364 49.987473L46.852158 50.181046L47.449951 50.379532L48.047745 50.582840L48.645538 50.790924L49.243332 51.003632L49.841141 51.220886L50.438934 51.442551L51.036728 51.668427L51.634521 51.898407L52.232315 52.132324L52.830109 52.369888L53.427902 52.610931L54.025696 52.855255L54.623489 53.102600L55.221283 53.352646L55.819077 53.605240L56.416885 53.859955L57.014679 54.116638L57.612473 54.374878L58.210266 54.634430L58.808060 54.894897L59.405853 55.156082L59.704773 55.286804" style="stroke:rgb(0.000000%,0.000000%,0.000000%); stroke-width: 1.000000;stroke-linecap: round;stroke-linejoin: round;stroke-miterlimit: 10.000000;fill: none;"></path>
  <path d="M51.704971 55.230270L52.237183 55.222809L52.881699 55.216736L53.527496 55.213684L54.174438 55.213440L54.822403 55.215683L55.471359 55.220261L56.121140 55.226822L56.771652 55.235199L57.422760 55.245010L58.074371 55.256027L58.726349 55.267899L59.378571 55.280426L59.704773 55.286804L59.478638 55.051636L59.026306 54.581558L58.573700 54.112167L58.120728 53.643600L57.667282 53.176239L57.213211 52.710342L56.758408 52.246231L56.302780 51.784103L55.846191 51.324310L55.388550 50.867035L54.929764 50.412537L54.469727 49.961060L54.088120 49.590012Z" style="stroke:rgb(0.000000%,0.000000%,0.000000%); stroke-width: 1.000000;fill: rgb(0.000000%,0.000000%,0.000000%);"></path>
  <path d="M0.224152 21.044830C0.431320 21.044830,0.619583 20.938110,0.821945 20.897675C1.018433 20.858414,1.219864 20.882828,1.419739 20.890182C1.618973 20.897507,1.818268 20.887665,2.017532 20.882324C2.216751 20.876984,2.416046 20.876175,2.615326 20.874054L3.213120 20.865372L3.810928 20.856262L4.408722 20.846680L5.006516 20.836624L5.604309 20.826050L6.202103 20.814957L6.799896 20.803314L7.397690 20.791077L7.995483 20.778229L8.593277 20.764740L9.191071 20.750580L9.788864 20.735718L10.386673 20.720123L10.984467 20.703735L11.582260 20.686554L12.180054 20.668503L12.777847 20.649582L13.375641 20.629715L13.973434 20.608871L14.571228 20.587006L15.169022 20.564072L15.766815 20.540024L16.364609 20.514786L16.962418 20.488327L17.560211 20.460602L18.158005 20.431519L18.755798 20.401031L19.353592 20.369095L19.951385 20.335617L20.549179 20.300552L21.146973 20.263809L21.744766 20.225342L22.342560 20.185043L22.940353 20.142853L23.538162 20.098709L24.135956 20.052490L24.733749 20.004135L25.331543 19.953568L25.929337 19.900665L26.527130 19.845367L27.124924 19.787567L27.722717 19.727158L28.320511 19.664047L28.918304 19.598145L29.516098 19.529343L30.113907 19.457535L30.711700 19.382614L31.309494 19.304474L31.907288 19.223007L32.505081 19.138107L33.102875 19.049667L33.700668 18.957581L34.298462 18.861725L34.896255 18.761993L35.494049 18.658295L36.091843 18.550522L36.689651 18.438553L37.287445 18.322311L37.885239 18.201691L38.483032 18.076584L39.080826 17.946930L39.678619 17.812622L40.276413 17.673599L40.874207 17.529785L41.472000 17.381119L42.069794 17.227539L42.667587 17.069000L43.265396 16.905472L43.863190 16.736938L44.460983 16.563370L45.058777 16.384766L45.656570 16.201126L46.254364 16.012527L46.852158 15.818954L47.449951 15.620468L48.047745 15.417160L48.645538 15.209076L49.243332 14.996368L49.841141 14.779114L50.438934 14.557449L51.036728 14.331573L51.634521 14.101593L52.232315 13.867676L52.830109 13.630112L53.427902 13.389069L54.025696 13.144745L54.623489 12.897400L55.221283 12.647354L55.819077 12.394760L56.416885 12.140045L57.014679 11.883362L57.612473 11.625122L58.210266 11.365570L58.808060 11.105103L59.405853 10.843918L60.003647 10.582458L60.601440 10.320923L61.199234 10.059830L61.797028 9.799271L62.394821 9.539780L62.992630 9.281555L63.590424 9.024887L64.188217 8.770187L64.786011 8.517746L65.383804 8.267685L65.981598 8.020325L66.579391 7.776062L67.177185 7.534973L67.774979 7.297531L68.372772 7.063705L68.970566 6.833740L69.568375 6.607941L70.166168 6.386307L70.763962 6.169052L71.361755 5.956406L71.959549 5.748352L72.557343 5.545181L73.155136 5.346771L73.752930 5.153183L74.350723 4.964569L74.948517 4.781082L75.546310 4.602631L76.144119 4.429077L76.741913 4.260468L77.339706 4.097183L77.937500 3.938614L78.535294 3.785080L79.133087 3.636505L79.730881 3.492767L80.328674 3.353714L80.926468 3.219391L81.524261 3.089844L82.122055 2.964828L82.719864 2.844345L83.317657 2.728134L83.915451 2.616119L84.513245 2.508484L85.111038 2.404907L85.708832 2.305054L86.306625 2.209274L86.904419 2.117233L87.502213 2.028763L88.100006 1.944000L88.697800 1.862488L89.295609 1.784348L89.893402 1.709656L90.491196 1.637680L91.088989 1.569046L91.686783 1.503250L92.284576 1.440109L92.882370 1.379654L93.480164 1.321945L94.077957 1.266754L94.675751 1.213837L95.273544 1.163223L95.871353 1.114960L96.469147 1.068802L97.066940 1.024750L97.664734 0.982574L98.262527 0.942276L98.860321 0.903885L99.458115 0.867126L100.055908 0.832031L100.653702 0.798599L101.251495 0.766571L101.849289 0.736221L102.447098 0.707001L103.044891 0.679520L103.642685 0.652863L104.240479 0.627655L104.838272 0.603607L105.436066 0.580734L106.033859 0.558716L106.631653 0.538193L107.229446 0.518234L107.827240 0.499161L108.425034 0.481293L109.022842 0.464005L109.620636 0.447617L110.218430 0.432144L110.816223 0.417252L111.414017 0.402969L112.011810 0.389603L112.609604 0.376831L113.207397 0.364365L113.805191 0.352814L114.402985 0.341873L115.000778 0.331253L115.598587 0.321228L116.196381 0.311508L116.794174 0.302414L117.391968 0.293945L117.989761 0.285461L118.587555 0.277603L119.185349 0.270355" style="stroke:rgb(0.000000%,0.000000%,0.000000%); stroke-width: 1.000000;stroke-linecap: round;stroke-linejoin: round;stroke-miterlimit: 10.000000;fill: none;"></path>
  <path d="M0.224152 44.955170C0.431320 44.955170,0.619583 45.061890,0.821945 45.102325C1.018433 45.141586,1.219864 45.117172,1.419739 45.109818C1.618973 45.102493,1.818268 45.112335,2.017532 45.117676C2.216751 45.123016,2.416046 45.123825,2.615326 45.125946L3.213120 45.134628L3.810928 45.143738L4.408722 45.153320L5.006516 45.163376L5.604309 45.173950L6.202103 45.185043L6.799896 45.196686L7.397690 45.208923L7.995483 45.221771L8.593277 45.235260L9.191071 45.249420L9.788864 45.264282L10.386673 45.279877L10.984467 45.296265L11.582260 45.313446L12.180054 45.331497L12.777847 45.350418L13.375641 45.370285L13.973434 45.391129L14.571228 45.412994L15.169022 45.435928L15.766815 45.459976L16.364609 45.485214L16.962418 45.511673L17.560211 45.539398L18.158005 45.568481L18.755798 45.598969L19.353592 45.630905L19.951385 45.664383L20.549179 45.699448L21.146973 45.736191L21.744766 45.774658L22.342560 45.814957L22.940353 45.857147L23.538162 45.901291L24.135956 45.947510L24.733749 45.995865L25.331543 46.046432L25.929337 46.099335L26.527130 46.154633L27.124924 46.212433L27.722717 46.272842L28.320511 46.335953L28.918304 46.401855L29.516098 46.470657L30.113907 46.542465L30.711700 46.617386L31.309494 46.695526L31.907288 46.776993L32.505081 46.861893L33.102875 46.950333L33.700668 47.042419L34.298462 47.138275L34.896255 47.238007L35.494049 47.341705L36.091843 47.449478L36.689651 47.561447L37.287445 47.677689L37.885239 47.798309L38.483032 47.923416L39.080826 48.053070L39.678619 48.187378L40.276413 48.326401L40.874207 48.470215L41.472000 48.618881L42.069794 48.772461L42.667587 48.931000L43.265396 49.094528L43.863190 49.263062L44.460983 49.436630L45.058777 49.615234L45.656570 49.798874L46.254364 49.987473L46.852158 50.181046L47.449951 50.379532L48.047745 50.582840L48.645538 50.790924L49.243332 51.003632L49.841141 51.220886L50.438934 51.442551L51.036728 51.668427L51.634521 51.898407L52.232315 52.132324L52.830109 52.369888L53.427902 52.610931L54.025696 52.855255L54.623489 53.102600L55.221283 53.352646L55.819077 53.605240L56.416885 53.859955L57.014679 54.116638L57.612473 54.374878L58.210266 54.634430L58.808060 54.894897L59.405853 55.156082L60.003647 55.417542L60.601440 55.679077L61.199234 55.940170L61.797028 56.200729L62.394821 56.460220L62.992630 56.718445L63.590424 56.975113L64.188217 57.229813L64.786011 57.482254L65.383804 57.732315L65.981598 57.979675L66.579391 58.223938L67.177185 58.465027L67.774979 58.702469L68.372772 58.936295L68.970566 59.166260L69.568375 59.392059L70.166168 59.613693L70.763962 59.830948L71.361755 60.043594L71.959549 60.251648L72.557343 60.454819L73.155136 60.653229L73.752930 60.846817L74.350723 61.035431L74.948517 61.218918L75.546310 61.397369L76.144119 61.570923L76.741913 61.739532L77.339706 61.902817L77.937500 62.061386L78.535294 62.214920L79.133087 62.363495L79.730881 62.507233L80.328674 62.646286L80.926468 62.780609L81.524261 62.910156L82.122055 63.035172L82.719864 63.155655L83.317657 63.271866L83.915451 63.383881L84.513245 63.491516L85.111038 63.595093L85.708832 63.694946L86.306625 63.790726L86.904419 63.882767L87.502213 63.971237L88.100006 64.056000L88.697800 64.137512L89.295609 64.215652L89.893402 64.290344L90.491196 64.362320L91.088989 64.430954L91.686783 64.496750L92.284576 64.559891L92.882370 64.620346L93.480164 64.678055L94.077957 64.733246L94.675751 64.786163L95.273544 64.836777L95.871353 64.885040L96.469147 64.931198L97.066940 64.975250L97.664734 65.017426L98.262527 65.057724L98.860321 65.096115L99.458115 65.132874L100.055908 65.167969L100.653702 65.201401L101.251495 65.233429L101.849289 65.263779L102.447098 65.292999L103.044891 65.320480L103.642685 65.347137L104.240479 65.372345L104.838272 65.396393L105.436066 65.419266L106.033859 65.441284L106.631653 65.461807L107.229446 65.481766L107.827240 65.500839L108.425034 65.518707L109.022842 65.535995L109.620636 65.552383L110.218430 65.567856L110.816223 65.582748L111.414017 65.597031L112.011810 65.610397L112.609604 65.623169L113.207397 65.635635L113.805191 65.647186L114.402985 65.658127L115.000778 65.668747L115.598587 65.678772L116.196381 65.688492L116.794174 65.697586L117.391968 65.706055L117.989761 65.714539L118.587555 65.722397L119.185349 65.729645" style="stroke:rgb(0.000000%,0.000000%,0.000000%); stroke-width: 1.000000;stroke-linecap: round;stroke-linejoin: round;stroke-miterlimit: 10.000000;fill: none;"></path>
</svg>
